<?xml version="1.0" encoding="UTF-8"?>
<svg width="267px" height="267px" viewBox="0 0 267 267" version="1.1" xmlns="http://www.w3.org/2000/svg" xmlns:xlink="http://www.w3.org/1999/xlink">
    <!-- Generator: Sketch 39.1 (31720) - http://www.bohemiancoding.com/sketch -->
    <title>BUDDHA</title>
    <desc>Created with Sketch.</desc>
    <defs></defs>
    <g id="Page-1" stroke="none" stroke-width="1" fill="none" fill-rule="evenodd">
        <g id="BUDDHA">
            <g id="Group-2" transform="translate(59.000000, 39.000000)">
                <path d="M74.5,134.794589 C111.665775,134.794589 141.794589,104.665775 141.794589,67.5 C141.794589,30.3342247 111.665775,0.2054108 74.5,0.2054108 C37.3342247,0.2054108 7.2054108,30.3342247 7.2054108,67.5 C7.2054108,104.665775 37.3342247,134.794589 74.5,134.794589 L74.5,134.794589 Z" id="Oval-4" stroke="#979797" stroke-width="5" fill="white"></path>
                <path d="M73.742829,184.583166 C86.016034,184.583166 128.577151,180.557113 144.106209,160.594059 C159.635267,140.631005 140.080157,121.61176 73.742825,133.536213 C4.9198397,121.61176 -7.1583171,144.652022 4.9198397,160.59406 C16.9979965,176.536098 60.709421,184.583166 73.742829,184.583166 L73.742829,184.583166 Z" id="Oval-3" stroke="#979797" stroke-width="5" fill="#D8D8D8"></path>
                <path d="M74.665253,176.0027 C112.567242,176.0027 143.292875,154.077089 143.292875,127.030478 C143.292875,99.983866 112.567242,78.058255 74.665253,78.058255 C36.7632645,78.058255 6.0376318,99.983866 6.0376318,127.030478 C6.0376318,154.077089 36.7632645,176.0027 74.665253,176.0027 L74.665253,176.0027 Z" id="Oval-2" stroke="#979797" stroke-width="5" fill="#D8D8D8"></path>
                <path d="M74.950015,142.499148 C98.225925,142.499148 117.094779,131.897797 117.094779,118.820368 C117.094779,105.742939 98.225925,95.141589 74.950015,95.141589 C51.674105,95.141589 32.8052518,105.742939 32.8052518,118.820368 C32.8052518,131.897797 51.674105,142.499148 74.950015,142.499148 L74.950015,142.499148 Z" id="Oval-3" stroke="#979797" stroke-width="5" fill="#D8D8D8"></path>
                <polygon id="Rectangle-2" stroke="#979797" stroke-width="5" fill="#D8D8D8" points="18 130.458918 30 188.999998 120.512171 189 131 130.458918"></polygon>
                <g id="\=" transform="translate(60.000000, 139.000000)" font-size="31.7399358" font-family="Arial-Black, Arial Black" fill="#979797" font-weight="700">
                    <text>
                        <tspan x="0.266283" y="35">\=</tspan>
                    </text>
                </g>
                <rect id="Rectangle-3" fill="#D8D8D8" x="27.9258517" y="97.160321" width="94.3246493" height="17.254509"></rect>
                <g id="Group" transform="translate(32.805252, 27.947144)">
                    <ellipse id="Oval-3" stroke="#979797" stroke-width="5" fill="#D8D8D8" cx="42.1447634" cy="39.2916667" rx="42.1447634" ry="39.2916667"></ellipse>
                    <g id="(-4" transform="translate(38.568368, 64.737350) rotate(-90.000000) translate(-38.568368, -64.737350) translate(31.068368, 40.737350)" font-size="33.5073922" font-family="Arial-Black, Arial Black" fill="#979797" font-weight="700">
                        <text id="(">
                            <tspan x="0.015874" y="37.8344907">(</tspan>
                        </text>
                    </g>
                    <g id="(" transform="translate(29.661707, 32.129959) rotate(90.000000) translate(-29.661707, -32.129959) translate(24.161707, 14.129959)" font-size="24.7174337" font-family="Arial-Black, Arial Black" fill="#979797" font-weight="700">
                        <text>
                            <tspan x="0.0482545" y="27.6458333">(</tspan>
                        </text>
                    </g>
                    <g id="(" transform="translate(63.161391, 31.630275) rotate(90.000000) translate(-63.161391, -31.630275) translate(57.661391, 13.630275)" font-size="24.7174337" font-family="Arial-Black, Arial Black" fill="#979797" font-weight="700">
                        <text>
                            <tspan x="0.5479382" y="27.6458333">(</tspan>
                        </text>
                    </g>
                </g>
            </g>
        </g>
    </g>
</svg>