<?xml version="1.0" encoding="UTF-8"?>
<svg width="267px" height="267px" viewBox="0 0 267 267" version="1.1" xmlns="http://www.w3.org/2000/svg" xmlns:xlink="http://www.w3.org/1999/xlink">
    <!-- Generator: Sketch 39.1 (31720) - http://www.bohemiancoding.com/sketch -->
    <title>BUDDHA</title>
    <desc>Created with Sketch.</desc>
    <defs></defs>
    <g id="Page-1" stroke="none" stroke-width="1" fill="none" fill-rule="evenodd">
        <g id="BUDDHA">
            <rect id="Rectangle-4" fill="#FCFFBC" x="0" y="0" width="267" height="267"></rect>
            <path d="M135.5,164.794589 C172.665775,164.794589 202.794589,134.665775 202.794589,97.5 C202.794589,60.3342247 172.665775,30.2054108 135.5,30.2054108 C98.3342247,30.2054108 68.2054108,60.3342247 68.2054108,97.5 C68.2054108,134.665775 98.3342247,164.794589 135.5,164.794589 L135.5,164.794589 Z" id="Oval-4" stroke="#979797" stroke-width="5" fill="#F8E81C"></path>
            <path d="M134.742829,214.583166 C147.016034,214.583166 189.577151,210.557113 205.106209,190.594059 C220.635267,170.631005 201.080157,151.61176 134.742825,163.536213 C65.9198397,151.61176 53.8416829,174.652022 65.9198397,190.59406 C77.9979965,206.536098 121.709421,214.583166 134.742829,214.583166 L134.742829,214.583166 Z" id="Oval-3" stroke="#979797" stroke-width="5" fill="#D8D8D8"></path>
            <path d="M135.665253,206.0027 C173.567242,206.0027 204.292875,184.077089 204.292875,157.030478 C204.292875,129.983866 173.567242,108.058255 135.665253,108.058255 C97.7632645,108.058255 67.0376318,129.983866 67.0376318,157.030478 C67.0376318,184.077089 97.7632645,206.0027 135.665253,206.0027 L135.665253,206.0027 Z" id="Oval-2" stroke="#979797" stroke-width="5" fill="#D8D8D8"></path>
            <g id="}" transform="translate(144.802363, 230.502700) rotate(90.000000) translate(-144.802363, -230.502700) translate(120.302363, 144.502700)" font-size="136.270448" font-family="Geometria-Light, Geometria" fill="#979797" font-weight="300">
                <text>
                    <tspan x="0.533066" y="129.369739">}</tspan>
                </text>
            </g>
            <path d="M135.950015,172.499148 C159.225925,172.499148 178.094779,161.897797 178.094779,148.820368 C178.094779,135.742939 159.225925,125.141589 135.950015,125.141589 C112.674105,125.141589 93.8052518,135.742939 93.8052518,148.820368 C93.8052518,161.897797 112.674105,172.499148 135.950015,172.499148 L135.950015,172.499148 Z" id="Oval-3" stroke="#979797" stroke-width="5" fill="#D8D8D8"></path>
            <polygon id="Rectangle-2" stroke="#979797" stroke-width="5" fill="#D8D8D8" points="79 160.458918 91 218.999998 181.512171 219 192 160.458918"></polygon>
            <g id="\=" transform="translate(121.000000, 169.000000)" font-size="31.7399358" font-family="Arial-Black, Arial Black" fill="#979797" font-weight="700">
                <text>
                    <tspan x="0.266283" y="35">\=</tspan>
                </text>
            </g>
            <rect id="Rectangle-3" fill="#D8D8D8" x="88.9258517" y="127.160321" width="94.3246493" height="17.254509"></rect>
            <g id="Group" transform="translate(93.805252, 57.947144)">
                <ellipse id="Oval-3" stroke="#979797" stroke-width="5" fill="#D8D8D8" cx="42.1447634" cy="39.2916667" rx="42.1447634" ry="39.2916667"></ellipse>
                <g id="(-4" transform="translate(38.568368, 64.737350) rotate(-90.000000) translate(-38.568368, -64.737350) translate(31.068368, 40.737350)" font-size="33.5073922" font-family="Arial-Black, Arial Black" fill="#979797" font-weight="700">
                    <text id="(">
                        <tspan x="0.015874" y="37.8344907">(</tspan>
                    </text>
                </g>
                <g id="(" transform="translate(29.661707, 32.129959) rotate(90.000000) translate(-29.661707, -32.129959) translate(24.161707, 14.129959)" font-size="24.7174337" font-family="Arial-Black, Arial Black" fill="#979797" font-weight="700">
                    <text>
                        <tspan x="0.0482545" y="27.6458333">(</tspan>
                    </text>
                </g>
                <g id="(" transform="translate(63.161391, 31.630275) rotate(90.000000) translate(-63.161391, -31.630275) translate(57.661391, 13.630275)" font-size="24.7174337" font-family="Arial-Black, Arial Black" fill="#979797" font-weight="700">
                    <text>
                        <tspan x="0.5479382" y="27.6458333">(</tspan>
                    </text>
                </g>
            </g>
            <g transform="translate(58.000000, 30.000000)"></g>
        </g>
    </g>
</svg>