<?xml version="1.0" encoding="UTF-8" standalone="no"?>
<svg width="550px" height="910px" viewBox="0 0 550 910" version="1.1" xmlns="http://www.w3.org/2000/svg" xmlns:xlink="http://www.w3.org/1999/xlink" xmlns:sketch="http://www.bohemiancoding.com/sketch/ns">
    <!-- Generator: Sketch 3.3.1 (12002) - http://www.bohemiancoding.com/sketch -->
    <title>CARD-2</title>
    <desc>Created with Sketch.</desc>
    <defs></defs>
    <g id="Page-1" stroke="none" stroke-width="1" fill="none" fill-rule="evenodd" sketch:type="MSPage">
        <g id="CARD-2" sketch:type="MSLayerGroup">
            <rect id="Rectangle-1" stroke="#979797" fill="#FFFFFF" sketch:type="MSShapeGroup" x="0" y="0" width="550" height="910"></rect>
            <text id="Maxim" sketch:type="MSTextLayer" font-family="Geometria" font-size="60" font-weight="260" fill="#4A4A4A">
                <tspan x="79" y="428">Maxim</tspan>
                <tspan x="79" y="504">SOKHATSKY</tspan>
            </text>
            <text id="Synrc" sketch:type="MSTextLayer" font-family="Geometria" font-size="30" font-weight="260" fill="#4A4A4A">
                <tspan x="255" y="112.728">Synrc</tspan>
                <tspan x="255" y="149.728">Research</tspan>
                <tspan x="255" y="186.728">Center</tspan>
            </text>
            <text id="Architecture-Consult" sketch:type="MSTextLayer" font-family="Geometria" font-size="30" font-weight="260" fill="#4A4A4A">
                <tspan x="79" y="559">Architecture Consultant</tspan>
            </text>
            <text id="n2o.space" sketch:type="MSTextLayer" font-family="Geometria" font-size="30" font-weight="260" fill="#4A4A4A">
                <tspan x="79" y="705.272"></tspan>
                <tspan x="79" y="742.272">@5HT</tspan>
                <tspan x="79" y="779.272">n2o.space</tspan>
                <tspan x="79" y="816.272">maxim@synrc.com</tspan>
            </text>
            <g id="S" transform="translate(48.000000, 54.184000)">
                <g id="Page-1">
                    <g id="Synrc-Neo-(7)">
                        <g id="Canvas">
                            <g id="Synrc-Neo">
                                <g id="g">
                                    <g id="Group">
                                        <g id="path" sketch:type="MSShapeGroup">
                                            <g id="path0_fill-link" transform="translate(88.282751, 87.253055) rotate(-21.731401) translate(-88.282751, -87.253055) translate(20.782751, 20.253055)" fill="#4A4A4A">
                                                <path d="M67.6103628,133.927013 C104.40172,133.927013 134.227323,104.10141 134.227323,67.3100531 C134.227323,30.5185293 104.40172,0.693092967 67.6103628,0.693092967 C30.818839,0.693092967 0.993402643,30.5185293 0.993402643,67.3100531 C0.993402643,104.10141 30.818839,133.927013 67.6103628,133.927013 L67.6103628,133.927013 L67.6103628,133.927013 Z" id="path0_fill"></path>
                                            </g>
                                            <g id="path1_stroke-link" transform="translate(88.455341, 87.480296) rotate(-21.731401) translate(-88.455341, -87.480296) translate(21.455341, 20.480296)" fill="#979797">
                                                <path d="M67.0341767,133.860851 C103.941226,133.860851 133.859967,103.942109 133.859967,67.0350602 L133.442306,67.0350602 C133.442306,103.711143 103.710259,133.44319 67.0341767,133.44319 L67.0341767,133.860851 L67.0341767,133.860851 Z M133.859967,67.0350602 C133.859967,30.1281784 103.941226,0.209269525 67.0341767,0.209269525 L67.0341767,0.626930718 C103.710259,0.626930718 133.442306,30.3588527 133.442306,67.0350602 L133.859967,67.0350602 L133.859967,67.0350602 Z M67.0341767,0.209269525 C30.1272949,0.209269525 0.208386028,30.1281784 0.208386028,67.0350602 L0.626047221,67.0350602 C0.626047221,30.3588527 30.3579692,0.626930718 67.0341767,0.626930718 L67.0341767,0.209269525 L67.0341767,0.209269525 Z M0.208386028,67.0350602 C0.208386028,103.942109 30.1272949,133.860851 67.0341767,133.860851 L67.0341767,133.44319 C30.3579692,133.44319 0.626047221,103.711143 0.626047221,67.0350602 L0.208386028,67.0350602 L0.208386028,67.0350602 Z" id="path1_stroke"></path>
                                            </g>
                                        </g>
                                        <g id="path" transform="translate(19.794749, 23.224344)" sketch:type="MSShapeGroup">
                                            <g id="path2_fill-link" transform="translate(60.309802, 68.183639) rotate(-21.731401) translate(-60.309802, -68.183639) translate(17.499540, 13.470035)" fill="#FFFFFF">
                                                <path d="M59.5739394,48.3447006 C67.9271634,58.1597385 92.9062261,67.326984 83.0093267,92.1573598 C77.03886,107.136778 39.3174134,122.688393 12.5870971,89.4843279 C-9.89101057,61.5624243 2.82259192,25.8341407 18.2255232,12.4258381 C47.2529341,-12.842664 79.4128461,8.24922618 79.4128461,8.24922618 C58.7386172,7.20507323 43.7562749,29.7587776 59.5739394,48.3447006 L59.5739394,48.3447006 L59.5739394,48.3447006 Z" id="path2_fill"></path>
                                            </g>
                                            <g id="path3_stroke-link" transform="translate(60.437414, 67.994068) rotate(-21.731401) translate(-60.437414, -67.994068) translate(17.437414, 12.994068)" fill="#979797">
                                                <path d="M59.574945,48.759946 L59.7340738,48.6246238 L59.574945,48.759946 L59.574945,48.759946 Z M83.0103323,92.5726052 L83.204127,92.6498725 L83.0103323,92.5726052 L83.0103323,92.5726052 Z M12.5881027,89.8995733 L12.7507817,89.7684278 L12.5881027,89.8995733 L12.5881027,89.8995733 Z M18.2265288,12.8410836 L18.363647,12.9985837 L18.2265288,12.8410836 L18.2265288,12.8410836 Z M79.4138517,8.66447172 L79.4034102,8.87300995 L80.1719066,8.91185243 L79.5282908,8.48984758 L79.4138517,8.66447172 L79.4138517,8.66447172 Z M59.4158161,48.8952682 C61.5191578,51.3648991 64.6624761,53.7919282 68.0238134,56.4190169 C71.3851503,59.0465237 74.9682657,61.8770134 77.982109,65.1765369 C80.9972053,68.4743897 83.425905,72.2095338 84.4955355,76.6805967 C85.5643303,81.1374595 85.2769795,86.321888 82.8161198,92.4953379 L83.204127,92.6498725 C85.6921346,86.4083438 85.9936859,81.1353712 84.9015021,76.5832816 C83.8097356,72.0449753 81.3275753,68.2191988 78.2907606,64.8946156 C75.2526934,61.5712855 71.6432653,58.7182421 68.2810926,56.0899 C64.91892,53.4619759 61.807344,51.0625125 59.7340738,48.6246238 L59.4158161,48.8952682 L59.4158161,48.8952682 Z M82.8161198,92.4953379 C79.8691023,99.889194 69.0320473,107.493134 55.5595503,109.09737 C42.1116118,110.699101 26.0699972,106.313658 12.7507817,89.7684278 L12.4254654,90.0307193 C25.8365663,106.689554 42.0207288,111.130545 55.6088343,109.512108 C69.1719638,107.897012 80.1806775,100.235435 83.204127,92.6498725 L82.8161198,92.4953379 L82.8161198,92.4953379 Z M12.7507817,89.7684278 C1.55468434,75.8611456 -0.878016688,60.0109032 1.40805185,45.9611986 C3.69521883,31.9048528 10.7033648,19.6668787 18.363647,12.9985837 L18.0894106,12.6835836 C10.3467657,19.4235911 3.29664058,31.7538265 0.995811897,45.8939551 C-1.30612359,60.0413924 1.14343842,76.0160979 12.4254654,90.0307193 L12.7507817,89.7684278 L12.7507817,89.7684278 Z M18.363647,12.9985837 C32.8185249,0.415580507 48.0462432,-0.623427752 59.6680834,1.48257033 C65.4840154,2.53561532 70.3869403,4.3740179 73.8485163,5.95368351 C75.577216,6.74231136 76.9392089,7.46340341 77.8726818,7.98944769 C78.3387916,8.25190601 78.6950565,8.46424495 78.9368827,8.61192992 C79.0571691,8.68548008 79.1478016,8.74228199 79.2087801,8.78112447 C79.2392694,8.80037865 79.2618231,8.81487153 79.2772765,8.82477009 C79.2847944,8.82965673 79.290224,8.83320685 79.293983,8.83567105 C79.2960713,8.83688227 79.2973243,8.83775936 79.2981596,8.83834408 C79.2985772,8.83863644 79.2989949,8.83880351 79.2989949,8.83897057 C79.2994126,8.8390541 79.2994126,8.83909587 79.4138517,8.66447172 C79.5282908,8.48984758 79.5282908,8.48972228 79.5278732,8.48947168 C79.5274555,8.48930462 79.5270379,8.48901225 79.5266202,8.48867813 C79.5257849,8.4879681 79.5241142,8.48692395 79.5220259,8.48558743 C79.5178493,8.48295617 79.5115844,8.47894662 79.5036488,8.47376762 C79.4877777,8.46357669 79.463971,8.44820677 79.4326465,8.42836782 C79.370415,8.38889885 79.2768589,8.33034276 79.1544842,8.25558143 C78.9109877,8.10664344 78.5480398,7.89050378 78.0777534,7.62558126 C77.139269,7.09686395 75.7618222,6.36758574 74.0218457,5.57369536 C70.5469045,3.98825347 65.5951133,2.13296905 59.7428447,1.07160425 C48.0278661,-1.05121305 32.6619855,-0.00191114604 18.0894106,12.6835836 L18.363647,12.9985837 L18.363647,12.9985837 Z M79.4242932,8.45589173 C69.0078229,7.92980569 60.0185011,13.3488761 55.6272114,21.2494805 C51.2313275,29.1585217 51.4518526,39.5376111 59.4158161,48.8952682 L59.7340738,48.6246238 C51.8803729,39.3963581 51.6832368,29.2055921 55.9922472,21.4523803 C60.3066876,13.6906483 69.1460688,8.35498477 79.4034102,8.87300995 L79.4242932,8.45589173 L79.4242932,8.45589173 Z" id="path3_stroke"></path>
                                            </g>
                                        </g>
                                        <g id="path" transform="translate(92.467780, 35.083532)" sketch:type="MSShapeGroup">
                                            <g id="path4_fill-link" transform="translate(29.844149, 37.327046) rotate(-21.731401) translate(-29.844149, -37.327046) translate(11.049399, 5.375972)" fill="#FFFFFF">
                                                <path d="M28.7858358,7.97164857 C14.5853553,-9.57016327 -10.2654856,4.63035904 4.56148672,23.6339433 C10.617574,31.3959259 28.7858358,42.846191 26.2798687,63.7292505 C49.8708347,30.5116119 28.7858358,7.97164857 28.7858358,7.97164857 L28.7858358,7.97164857 L28.7858358,7.97164857 Z" id="path4_fill"></path>
                                            </g>
                                            <g id="path5_stroke-link" transform="translate(29.766828, 37.133057) rotate(-21.731401) translate(-29.766828, -37.133057) translate(10.554417, 4.973152)" fill="#979797">
                                                <path d="M29.203497,8.38930976 L29.0411939,8.52070598 L29.0459135,8.52651147 L29.0510089,8.53194106 L29.203497,8.38930976 L29.203497,8.38930976 Z M4.97914791,24.0516045 L5.14378995,23.9231319 L4.97914791,24.0516045 L4.97914791,24.0516045 Z M26.6975299,64.146912 L26.4901611,64.12227 L26.8677686,64.2680337 L26.6975299,64.146912 L26.6975299,64.146912 Z M29.3658419,8.25791357 C22.2069203,-0.585439871 12.3305696,-1.45536966 6.09747751,2.33753275 C2.98132824,4.23373545 0.780184841,7.29558039 0.304906035,11.0945013 C-0.170267938,14.8925451 1.08292029,19.3973135 4.81450586,24.1800353 L5.14378995,23.9231319 C1.46187264,19.2040616 0.26129636,14.8074675 0.719336201,11.1463331 C1.17726995,7.48607566 3.2963116,4.53097654 6.31457779,2.69432817 C12.3502832,-0.978463229 21.9995933,-0.177752427 29.0411939,8.52070598 L29.3658419,8.25791357 L29.3658419,8.25791357 Z M4.81450586,24.1800353 C6.33825918,26.1321837 8.61856397,28.3127928 11.1330097,30.8028053 C13.6477477,33.2930684 16.3988402,36.0946143 18.8839661,39.3067213 C23.84954,45.7238768 27.7344156,53.7534131 26.4901611,64.12227 L26.9048569,64.1719717 C28.1666114,53.6577687 24.2203396,45.5204758 19.2142526,39.0511544 C16.7135479,35.8200439 13.9437024,32.9983666 11.4268761,30.506057 C8.90984091,28.013455 6.6480385,25.8520165 5.14378995,23.9231319 L4.81450586,24.1800353 L4.81450586,24.1800353 Z M26.8677686,64.2680337 C38.697646,47.61087 39.3368764,33.6098644 37.0003962,23.7632929 C35.8324902,18.8472119 33.9205625,14.9616681 32.3076803,12.3213393 C31.4992135,10.9983557 30.7608721,9.97846884 30.228187,9.29438156 C29.9608839,8.95114759 29.7426976,8.68893991 29.5930079,8.51452459 C29.5176618,8.42677396 29.4583957,8.35973935 29.4187179,8.31550904 C29.3986284,8.2931224 29.382966,8.27591477 29.3726498,8.26467968 C29.3673873,8.25891596 29.3632524,8.25440522 29.3605794,8.25152332 C29.3591593,8.25001974 29.3580317,8.24880852 29.3573216,8.24805673 C29.3569457,8.24763907 29.3566116,8.24730494 29.3564445,8.24709611 C29.3561939,8.24680375 29.3560269,8.24663668 29.203497,8.38930976 C29.0510089,8.53194106 29.0510089,8.53194106 29.0510507,8.53202459 C29.0512178,8.53214989 29.0513431,8.53231696 29.0515937,8.53260932 C29.0521784,8.53323581 29.052972,8.53407113 29.0540996,8.53528235 C29.0565221,8.53791362 29.0599887,8.5416308 29.06475,8.54685156 C29.074565,8.55754369 29.0887655,8.57316421 29.1078526,8.59442316 C29.146528,8.63752583 29.2027452,8.70113561 29.2760866,8.78654731 C29.4237298,8.95854019 29.6355258,9.21306295 29.8986941,9.55099263 C30.4269102,10.2293161 31.1515941,11.2298653 31.9512482,12.5390661 C33.5546078,15.1630225 35.439471,18.9885902 36.5940118,23.8597309 C38.9023417,33.587603 38.2885468,47.465524 26.5272494,64.0262079 L26.8677686,64.2680337 L26.8677686,64.2680337 Z" id="path5_stroke"></path>
                                            </g>
                                        </g>
                                        <g id="ellipse" transform="translate(83.279236, 91.303103)">
                                            <g id="path6_fill-link" transform="translate(18.843166, 19.245283) rotate(-21.731401) translate(-18.843166, -19.245283) translate(4.843166, 4.745283)" fill="#4A4A4A" sketch:type="MSShapeGroup">
                                                <path d="M13.5703963,28.1451821 C21.0671223,28.1451821 27.144385,22.0679194 27.144385,14.5711933 C27.144385,7.07446732 21.0671223,0.997204604 13.5703963,0.997204604 C6.07367026,0.997204604 -0.00359245641,7.07446732 -0.00359245641,14.5711933 C-0.00359245641,22.0679194 6.07367026,28.1451821 13.5703963,28.1451821 L13.5703963,28.1451821 L13.5703963,28.1451821 Z" id="path6_fill"></path>
                                            </g>
                                            <g id="path7_stroke-link" transform="translate(18.481242, 19.475282) rotate(-21.731401) translate(-18.481242, -19.475282) translate(4.481242, 5.475282)"></g>
                                        </g>
                                    </g>
                                </g>
                            </g>
                        </g>
                    </g>
                </g>
            </g>
        </g>
    </g>
</svg>