<?xml version="1.0" encoding="UTF-8" standalone="no"?>
<svg width="550px" height="910px" viewBox="0 0 550 910" version="1.1" xmlns="http://www.w3.org/2000/svg" xmlns:xlink="http://www.w3.org/1999/xlink" xmlns:sketch="http://www.bohemiancoding.com/sketch/ns">
    <!-- Generator: Sketch 3.3.1 (12002) - http://www.bohemiancoding.com/sketch -->
    <title>CARD</title>
    <desc>Created with Sketch.</desc>
    <defs></defs>
    <g id="Page-1" stroke="none" stroke-width="1" fill="none" fill-rule="evenodd" sketch:type="MSPage">
        <g id="CARD" sketch:type="MSLayerGroup" transform="translate(-1.000000, 0.000000)">
            <rect id="Rectangle-1" stroke="#979797" fill="#FFFFFF" sketch:type="MSShapeGroup" x="0.998003992" y="0" width="550" height="910"></rect>
            <g id="S" transform="translate(148.253493, 141.000000)" sketch:type="MSShapeGroup">
                <g id="Page-1">
                    <g id="Synrc-Neo-(7)">
                        <g id="Canvas">
                            <g id="Synrc-Neo">
                                <g id="g">
                                    <g id="Group">
                                        <g id="path">
                                            <g id="path0_fill-link" transform="translate(126.969986, 126.706957) rotate(-21.731401) translate(-126.969986, -126.706957) translate(30.163599, 29.206957)" fill="#4990E2">
                                                <path d="M96.4904878,194.379387 C149.783927,194.379387 192.987254,151.089654 192.987254,97.6896277 C192.987254,44.2893589 149.783927,0.999868449 96.4904878,0.999868449 C43.1968063,0.999868449 -0.00627796891,44.2893589 -0.00627796891,97.6896277 C-0.00627796891,151.089654 43.1968063,194.379387 96.4904878,194.379387 L96.4904878,194.379387 L96.4904878,194.379387 Z" id="path0_fill"></path>
                                            </g>
                                            <g id="path1_stroke-link" transform="translate(127.009685, 127.117669) rotate(-21.731401) translate(-127.009685, -127.117669) translate(29.704296, 29.617669)" fill="#979797">
                                                <path d="M97.1043772,194.286238 C150.5654,194.286238 193.903641,150.861322 193.903641,97.2933764 L193.298645,97.2933764 C193.298645,150.52609 150.230838,193.680033 97.1043772,193.680033 L97.1043772,194.286238 L97.1043772,194.286238 Z M193.903641,97.2933764 C193.903641,43.7256737 150.5654,0.300514527 97.1043772,0.300514527 L97.1043772,0.906719915 C150.230838,0.906719915 193.298645,44.060481 193.298645,97.2933764 L193.903641,97.2933764 L193.903641,97.2933764 Z M97.1043772,0.300514527 C43.6435961,0.300514527 0.305113885,43.7256737 0.305113885,97.2933764 L0.910109282,97.2933764 C0.910109282,44.060481 43.9777351,0.906719915 97.1043772,0.906719915 L97.1043772,0.300514527 L97.1043772,0.300514527 Z M0.305113885,97.2933764 C0.305113885,150.861322 43.6435961,194.286238 97.1043772,194.286238 L97.1043772,193.680033 C43.9777351,193.680033 0.910109282,150.52609 0.910109282,97.2933764 L0.305113885,97.2933764 L0.305113885,97.2933764 Z" id="path1_stroke"></path>
                                            </g>
                                        </g>
                                        <g id="path" transform="translate(27.224787, 35.159905)">
                                            <g id="path2_fill-link" transform="translate(87.360649, 97.512253) rotate(-21.731401) translate(-87.360649, -97.512253) translate(25.348635, 18.099365)" fill="#FFFFFF">
                                                <path d="M86.2947283,70.1688797 C98.3946365,84.4147061 134.577596,97.7203082 120.241625,133.759825 C111.593216,155.501381 56.9525121,178.073439 18.2328068,129.88011 C-14.3274405,89.3534615 4.08861334,37.4964099 26.4002446,18.0352165 C68.4473639,-18.6402094 115.03201,11.9731626 115.03201,11.9731626 C85.0847378,10.4576491 63.3823429,43.19274 86.2947283,70.1688797 L86.2947283,70.1688797 L86.2947283,70.1688797 Z" id="path2_fill"></path>
                                            </g>
                                            <g id="path3_stroke-link" transform="translate(87.248648, 97.230692) rotate(-21.731401) translate(-87.248648, -97.230692) translate(25.236633, 17.514701)" fill="#979797">
                                                <path d="M86.2947283,70.775085 L86.5252315,70.5786745 L86.2947283,70.775085 L86.2947283,70.775085 Z M120.241625,134.36603 L120.522343,134.478178 L120.241625,134.36603 L120.241625,134.36603 Z M18.2328068,130.486315 L18.4684525,130.295967 L18.2328068,130.486315 L18.2328068,130.486315 Z M26.4002446,18.6414218 L26.5988646,18.8700219 L26.4002446,18.6414218 L26.4002446,18.6414218 Z M115.03201,12.579368 L115.016885,12.8820463 L116.130076,12.9384234 L115.197778,12.3259135 L115.03201,12.579368 L115.03201,12.579368 Z M86.0642251,70.9714955 C89.1109818,74.5559883 93.6641773,78.0786477 98.5331804,81.8916793 C103.402183,85.7053177 108.592438,89.8135713 112.958085,94.602594 C117.325547,99.3891919 120.843595,104.810487 122.392989,111.299915 C123.941172,117.768733 123.524935,125.293561 119.960302,134.253882 L120.522343,134.478178 C124.1263,125.419045 124.563107,117.765702 122.981044,111.158669 C121.399586,104.571642 117.804099,99.0188005 113.405177,94.1934055 C109.004441,89.3698291 103.776071,85.2288404 98.9058575,81.4139895 C94.0356444,77.5997455 89.5284285,74.1170957 86.5252315,70.5786745 L86.0642251,70.9714955 L86.0642251,70.9714955 Z M119.960302,134.253882 C115.691455,144.985536 99.993639,156.022112 80.4783026,158.350547 C60.99854,160.675344 37.7617557,154.310187 18.4684525,130.295967 L17.9972216,130.676665 C37.4236237,154.855773 60.866893,161.301554 80.5496921,158.952508 C100.196312,156.608312 116.142781,145.48808 120.522343,134.478178 L119.960302,134.253882 L119.960302,134.253882 Z M18.4684525,130.295967 C2.25055263,110.11054 -1.27329146,87.1050457 2.03815084,66.712903 C5.35118428,46.3111212 15.5027046,28.5485759 26.5988646,18.8700219 L26.2016246,18.4128218 C14.9861595,28.1954613 4.77383113,46.0919173 1.44100829,66.6153039 C-1.89341779,87.1492986 1.65484996,110.335443 17.9972216,130.676665 L18.4684525,130.295967 L18.4684525,130.295967 Z M26.5988646,18.8700219 C47.5372108,0.606691609 69.5950405,-0.901354663 86.4296422,2.15535113 C94.854203,3.68377071 101.956244,6.35208074 106.970446,8.64485254 C109.474522,9.78948953 111.447412,10.8361031 112.799577,11.5996188 C113.474751,11.9805583 113.990812,12.2887531 114.341105,12.5031073 C114.515344,12.6098601 114.646628,12.692304 114.734957,12.7486811 C114.779122,12.7766272 114.811792,12.7976626 114.834176,12.8120296 C114.845066,12.8191222 114.852931,12.824275 114.858376,12.8278516 C114.861401,12.8296096 114.863216,12.8308826 114.864426,12.8317313 C114.865031,12.8321557 114.865636,12.8323981 114.865636,12.8326406 C114.866241,12.8327619 114.866241,12.8328225 115.03201,12.579368 C115.197778,12.3259135 115.197778,12.3257317 115.197173,12.3253679 C115.196568,12.3251255 115.195963,12.3247011 115.195359,12.3242162 C115.194149,12.3231856 115.191729,12.3216701 115.188704,12.3197302 C115.182654,12.3159111 115.173579,12.3100916 115.162084,12.3025746 C115.139094,12.2877832 115.104609,12.2654749 115.059235,12.2366801 C114.96909,12.1793937 114.833571,12.0944037 114.656308,11.9858929 C114.303595,11.7697201 113.777854,11.4560088 113.096629,11.0714927 C111.737205,10.3040973 109.74193,9.24560206 107.221519,8.09332688 C102.187957,5.79217123 95.0151318,3.09935841 86.5379364,1.55886322 C69.5684207,-1.52225447 47.3104585,0.000732296106 26.2016246,18.4128218 L26.5988646,18.8700219 L26.5988646,18.8700219 Z M115.047135,12.276629 C99.9585492,11.5130527 86.9372332,19.3784464 80.5763119,30.8456094 C74.2087355,42.3250176 74.528173,57.3895246 86.0642251,70.9714955 L86.5252315,70.5786745 C75.1488982,57.1845059 74.8633404,42.393337 81.1050777,31.1401039 C87.3546806,19.8745042 100.158803,12.1301698 115.016885,12.8820463 L115.047135,12.276629 L115.047135,12.276629 Z" id="path3_stroke"></path>
                                            </g>
                                        </g>
                                        <g id="path" transform="translate(132.493962, 50.921241)">
                                            <g id="path4_fill-link" transform="translate(43.230189, 54.177541) rotate(-21.731401) translate(-43.230189, -54.177541) translate(16.005403, 7.802839)" fill="#FFFFFF">
                                                <path d="M41.6971902,11.5702785 C21.1273468,-13.8904084 -14.8698793,6.72063541 6.60745725,34.3029805 C15.3798905,45.5689439 41.6971902,62.1881858 38.0672178,92.498455 C72.2394754,44.2854253 41.6971902,11.5702785 41.6971902,11.5702785 L41.6971902,11.5702785 L41.6971902,11.5702785 Z" id="path4_fill"></path>
                                            </g>
                                            <g id="path5_stroke-link" transform="translate(43.118188, 53.895980) rotate(-21.731401) translate(-43.118188, -53.895980) translate(15.288406, 7.218176)" fill="#979797">
                                                <path d="M42.3021856,12.1764839 L42.0670844,12.3671961 L42.0739209,12.3756224 L42.0813018,12.383503 L42.3021856,12.1764839 L42.3021856,12.1764839 Z M7.21245263,34.9091859 L7.45094182,34.7227171 L7.21245263,34.9091859 L7.21245263,34.9091859 Z M38.6722132,93.1046608 L38.371833,93.0688947 L38.9188094,93.2804604 L38.6722132,93.1046608 L38.6722132,93.1046608 Z M42.5373473,11.9857717 C32.1674237,-0.849724156 17.8612186,-2.1123651 8.8323883,3.39276181 C4.31854789,6.14496459 1.13012232,10.5890138 0.441665999,16.1028762 C-0.246638473,21.6154655 1.56864416,28.153815 6.97396343,35.095594 L7.45094182,34.7227171 C2.11756859,27.8733237 0.37849601,21.4919815 1.04198115,16.1781063 C1.70531262,10.8655041 4.77481122,6.57638881 9.14686489,3.91062489 C17.8897744,-1.42016949 31.867104,-0.257994951 42.0670844,12.3671961 L42.5373473,11.9857717 L42.5373473,11.9857717 Z M6.97396343,35.095594 C9.18116813,37.928998 12.4842615,41.0939964 16.1265153,44.7080716 C19.7691926,48.3225107 23.7542367,52.3887545 27.3540199,57.0508983 C34.5468101,66.3649412 40.1741748,78.0192395 38.371833,93.0688947 L38.9725329,93.1410332 C40.800224,77.8804185 35.0839251,66.0697192 27.8324502,56.6799612 C24.2101008,51.9902351 20.1978923,47.8947721 16.5521901,44.2773627 C12.9061853,40.659529 9.62989323,37.5223554 7.45094182,34.7227171 L6.97396343,35.095594 L6.97396343,35.095594 Z M38.9188094,93.2804604 C56.0547595,69.1037771 56.9807049,48.7823174 53.5962397,34.4907223 C51.904491,27.3553818 49.1350036,21.7157925 46.7986929,17.8835439 C45.6276033,15.9633277 44.5580924,14.4830348 43.7864813,13.490131 C43.3992843,12.9919514 43.0832346,12.6113756 42.8664043,12.3582243 C42.7572631,12.2308605 42.6714143,12.1335645 42.6139398,12.0693674 C42.5848395,12.0368748 42.5621521,12.0118991 42.5472087,11.9955922 C42.5395858,11.9872266 42.5335963,11.9806796 42.5297244,11.9764967 C42.5276674,11.9743144 42.5260339,11.9725564 42.5250054,11.9714652 C42.5244609,11.970859 42.5239769,11.970374 42.5237349,11.9700709 C42.5233719,11.9696466 42.5231299,11.9694041 42.3021856,12.1764839 C42.0813018,12.383503 42.0813018,12.383503 42.0813623,12.3836243 C42.0816043,12.3838061 42.0817858,12.3840486 42.0821488,12.384473 C42.0829958,12.3853823 42.0841453,12.3865947 42.0857788,12.3883527 C42.0892877,12.3921718 42.0943092,12.397567 42.1012062,12.4051446 C42.1154235,12.4206634 42.1359934,12.4433355 42.1636417,12.4741913 C42.2196642,12.5367518 42.3010966,12.6290768 42.4073338,12.7530458 C42.6211997,13.0026812 42.9279929,13.3721028 43.3092004,13.8625836 C44.0743381,14.8471217 45.1240656,16.2993474 46.2823898,18.1995588 C48.6049066,22.0080441 51.3351904,27.5605823 53.0075791,34.6306952 C56.3512677,48.7500067 55.4621664,68.8928177 38.4255566,92.9294675 L38.9188094,93.2804604 L38.9188094,93.2804604 Z" id="path5_stroke"></path>
                                            </g>
                                        </g>
                                        <g id="ellipse" transform="translate(119.184066, 133.971360)">
                                            <g id="path6_fill-link" transform="translate(27.148030, 26.977915) rotate(-21.731401) translate(-27.148030, -26.977915) translate(7.183187, 6.973141)" fill="#4990E2">
                                                <path d="M19.6623504,39.4033501 C30.5215943,39.4033501 39.3247007,30.5826375 39.3247007,19.7016751 C39.3247007,8.82071274 30.5215943,0 19.6623504,0 C8.80310653,0 0,8.82071274 0,19.7016751 C0,30.5826375 8.80310653,39.4033501 19.6623504,39.4033501 L19.6623504,39.4033501 L19.6623504,39.4033501 Z" id="path6_fill"></path>
                                            </g>
                                            <g id="path7_stroke-link" transform="translate(26.755029, 26.808579) rotate(-21.731401) translate(-26.755029, -26.808579) translate(6.487688, 6.500703)" fill="#979797">
                                                <path d="M39.6271985,20.3078804 C39.6271985,31.0214089 30.9594899,39.7064529 20.2673458,39.7064529 L20.2673458,40.3126583 C31.2936288,40.3126583 40.2321939,31.3562161 40.2321939,20.3078804 L39.6271985,20.3078804 L39.6271985,20.3078804 Z M20.2673458,39.7064529 C9.57520166,39.7064529 0.907493096,31.0214089 0.907493096,20.3078804 L0.302497698,20.3078804 C0.302497698,31.3562161 9.24106266,40.3126583 20.2673458,40.3126583 L20.2673458,39.7064529 L20.2673458,39.7064529 Z M0.907493096,20.3078804 C0.907493096,9.59435206 9.57520166,0.909308082 20.2673458,0.909308082 L20.2673458,0.303102694 C9.24106266,0.303102694 0.302497698,9.25954478 0.302497698,20.3078804 L0.907493096,20.3078804 L0.907493096,20.3078804 Z M20.2673458,0.909308082 C30.9594899,0.909308082 39.6271985,9.59435206 39.6271985,20.3078804 L40.2321939,20.3078804 C40.2321939,9.25954478 31.2936288,0.303102694 20.2673458,0.303102694 L20.2673458,0.909308082 L20.2673458,0.909308082 Z" id="path7_stroke"></path>
                                            </g>
                                        </g>
                                    </g>
                                </g>
                            </g>
                        </g>
                    </g>
                </g>
            </g>
            <text id="MAXIM" sketch:type="MSTextLayer" font-family="Geometria" font-size="48" font-weight="260" sketch:alignment="middle" fill="#4A4A4A">
                <tspan x="193.208" y="456">MAXIM</tspan>
                <tspan x="130.04" y="517">SOKHATSKY</tspan>
            </text>
            <text id="Synrc-Research-Cente" sketch:type="MSTextLayer" font-family="Geometria" font-size="24" font-weight="260" sketch:alignment="middle" fill="#9B9B9B">
                <tspan x="146.806004" y="120">Synrc Research Center</tspan>
            </text>
            <text id="Architecture-Consult" sketch:type="MSTextLayer" font-family="Geometria" font-size="24" font-weight="260" sketch:alignment="middle" fill="#9B9B9B">
                <tspan x="136.532" y="584">Architecture Consultant</tspan>
            </text>
            <text id="Web:-n2o.space" sketch:type="MSTextLayer" font-family="Geometria" font-size="24" font-weight="260" sketch:alignment="middle" fill="#4990E2">
                <tspan x="185.54" y="732">Web: n2o.space</tspan>
                <tspan x="85.196" y="762">Instagram, Github, Twitter: @5HT</tspan>
                <tspan x="151.04" y="792">Telegram: t.me/tonpa</tspan>
                <tspan x="124.064" y="822">E-mail: maxim@synrc.com</tspan>
            </text>
        </g>
    </g>
</svg>