<?xml version="1.0" encoding="UTF-8" standalone="no"?>
<svg width="550px" height="910px" viewBox="0 0 550 910" version="1.1" xmlns="http://www.w3.org/2000/svg" xmlns:xlink="http://www.w3.org/1999/xlink" xmlns:sketch="http://www.bohemiancoding.com/sketch/ns">
    <!-- Generator: Sketch 3.3.1 (12002) - http://www.bohemiancoding.com/sketch -->
    <title>CARD-1</title>
    <desc>Created with Sketch.</desc>
    <defs></defs>
    <g id="Page-1" stroke="none" stroke-width="1" fill="none" fill-rule="evenodd" sketch:type="MSPage">
        <g id="CARD-1" sketch:type="MSLayerGroup" transform="translate(-1.000000, 0.000000)">
            <rect id="Rectangle-1" stroke="#979797" fill="#FFFFFF" sketch:type="MSShapeGroup" x="1" y="0" width="550" height="910"></rect>
            <g id="S" transform="translate(188.500000, 136.000000)" sketch:type="MSShapeGroup">
                <g id="Page-1">
                    <g id="Synrc-Neo-(7)">
                        <g id="Canvas">
                            <g id="Synrc-Neo">
                                <g id="g">
                                    <g id="Group">
                                        <g id="path">
                                            <g id="path0_fill-link" transform="translate(87.654280, 87.298100) rotate(-21.731401) translate(-87.654280, -87.298100) translate(20.823571, 20.122903)" fill="#4990E2">
                                                <path d="M66.6126261,133.922806 C103.403983,133.922806 133.229586,104.097203 133.229586,67.3058459 C133.229586,30.5143221 103.403983,0.688885742 66.6126261,0.688885742 C29.8211023,0.688885742 -0.00433402303,30.5143221 -0.00433402303,67.3058459 C-0.00433402303,104.097203 29.8211023,133.922806 66.6126261,133.922806 L66.6126261,133.922806 L66.6126261,133.922806 Z" id="path0_fill"></path>
                                            </g>
                                            <g id="path1_stroke-link" transform="translate(87.681686, 87.581071) rotate(-21.731401) translate(-87.681686, -87.581071) translate(20.506489, 20.405874)" fill="#979797">
                                                <path d="M67.0364273,133.858629 C103.943476,133.858629 133.862218,103.939887 133.862218,67.0328381 L133.444557,67.0328381 C133.444557,103.70892 103.71251,133.440968 67.0364273,133.440968 L67.0364273,133.858629 L67.0364273,133.858629 Z M133.862218,67.0328381 C133.862218,30.1259563 103.943476,0.20704741 67.0364273,0.20704741 L67.0364273,0.624708603 C103.71251,0.624708603 133.444557,30.3566306 133.444557,67.0328381 L133.862218,67.0328381 L133.862218,67.0328381 Z M67.0364273,0.20704741 C30.1295456,0.20704741 0.210636692,30.1259563 0.210636692,67.0328381 L0.628297884,67.0328381 C0.628297884,30.3566306 30.3602199,0.624708603 67.0364273,0.624708603 L67.0364273,0.20704741 L67.0364273,0.20704741 Z M0.210636692,67.0328381 C0.210636692,103.939887 30.1295456,133.858629 67.0364273,133.858629 L67.0364273,133.440968 C30.3602199,133.440968 0.628297884,103.70892 0.628297884,67.0328381 L0.210636692,67.0328381 L0.210636692,67.0328381 Z" id="path1_stroke"></path>
                                            </g>
                                        </g>
                                        <g id="path" transform="translate(18.794749, 24.224344)">
                                            <g id="path2_fill-link" transform="translate(60.309802, 67.183639) rotate(-21.731401) translate(-60.309802, -67.183639) translate(17.499540, 12.470035)" fill="#FFFFFF">
                                                <path d="M59.5739394,48.3447006 C67.9271634,58.1597385 92.9062261,67.326984 83.0093267,92.1573598 C77.03886,107.136778 39.3174134,122.688393 12.5870971,89.4843279 C-9.89101057,61.5624243 2.82259192,25.8341407 18.2255232,12.4258381 C47.2529341,-12.842664 79.4128461,8.24922618 79.4128461,8.24922618 C58.7386172,7.20507323 43.7562749,29.7587776 59.5739394,48.3447006 L59.5739394,48.3447006 L59.5739394,48.3447006 Z" id="path2_fill"></path>
                                            </g>
                                            <g id="path3_stroke-link" transform="translate(60.232482, 66.989650) rotate(-21.731401) translate(-60.232482, -66.989650) translate(17.422219, 12.067215)" fill="#979797">
                                                <path d="M59.5739394,48.7623617 L59.7330683,48.6270395 L59.5739394,48.7623617 L59.5739394,48.7623617 Z M83.0093267,92.5750209 L83.2031214,92.6522882 L83.0093267,92.5750209 L83.0093267,92.5750209 Z M12.5870971,89.901989 L12.7497762,89.7708434 L12.5870971,89.901989 L12.5870971,89.901989 Z M18.2255232,12.8434993 L18.3626414,13.0009993 L18.2255232,12.8434993 L18.2255232,12.8434993 Z M79.4128461,8.6668874 L79.4024046,8.87542563 L80.170901,8.91426811 L79.5272853,8.49226326 L79.4128461,8.6668874 L79.4128461,8.6668874 Z M59.4148105,48.8976839 C61.5181522,51.3673148 64.6614705,53.7943439 68.0228078,56.4214326 C71.3841447,59.0489394 74.9672601,61.8794291 77.9811035,65.1789526 C80.9961998,68.4768054 83.4248995,72.2119495 84.49453,76.6830124 C85.5633247,81.1398752 85.2759739,86.3243036 82.8151143,92.4977536 L83.2031214,92.6522882 C85.691129,86.4107595 85.9926803,81.1377869 84.9004965,76.5856973 C83.80873,72.047391 81.3265697,68.2216145 78.289755,64.8970313 C75.2516878,61.5737011 71.6422597,58.7206578 68.2800871,56.0923156 C64.9179144,53.4643916 61.8063384,51.0649282 59.7330683,48.6270395 L59.4148105,48.8976839 L59.4148105,48.8976839 Z M82.8151143,92.4977536 C79.8680967,99.8916097 69.0310417,107.495549 55.5585447,109.099786 C42.1106063,110.701517 26.0689916,106.316074 12.7497762,89.7708434 L12.4244598,90.033135 C25.8355607,106.691969 42.0197232,111.132961 55.6078288,109.514523 C69.1709582,107.899428 80.1796719,100.237851 83.2031214,92.6522882 L82.8151143,92.4977536 L82.8151143,92.4977536 Z M12.7497762,89.7708434 C1.55367875,75.8635613 -0.879022273,60.0133189 1.40704626,45.9636143 C3.69421324,31.9072685 10.7023592,19.6692944 18.3626414,13.0009993 L18.088405,12.6859993 C10.3457601,19.4260068 3.29563499,31.7562422 0.994806311,45.8963708 C-1.30712917,60.0438081 1.14243284,76.0185135 12.4244598,90.033135 L12.7497762,89.7708434 L12.7497762,89.7708434 Z M18.3626414,13.0009993 C32.8175193,0.417996187 48.0452376,-0.621012071 59.6670778,1.48498601 C65.4830098,2.538031 70.3859347,4.37643358 73.8475107,5.95609919 C75.5762104,6.74472704 76.9382033,7.46581909 77.8716763,7.99186337 C78.337786,8.25432169 78.694051,8.46666063 78.9358771,8.6143456 C79.0561635,8.68789576 79.146796,8.74469767 79.2077745,8.78354015 C79.2382638,8.80279433 79.2608175,8.81728721 79.2762709,8.82718578 C79.2837888,8.83207241 79.2892184,8.83562253 79.2929774,8.83808673 C79.2950657,8.83929795 79.2963187,8.84017504 79.297154,8.84075976 C79.2975717,8.84105212 79.2979893,8.84121919 79.2979893,8.84138625 C79.298407,8.84146979 79.298407,8.84151155 79.4128461,8.6668874 C79.5272853,8.49226326 79.5272853,8.49213796 79.5268676,8.49188736 C79.5264499,8.4917203 79.5260323,8.49142794 79.5256146,8.49109381 C79.5247793,8.49038378 79.5231087,8.48933963 79.5210203,8.48800311 C79.5168437,8.48537185 79.5105788,8.4813623 79.5026433,8.47618331 C79.4867721,8.46599237 79.4629655,8.45062245 79.4316409,8.4307835 C79.3694094,8.39131453 79.2758533,8.33275844 79.1534786,8.25799711 C78.9099822,8.10905912 78.5470342,7.89291946 78.0767479,7.62799694 C77.1382634,7.09927963 75.7608166,6.37000142 74.0208401,5.57611104 C70.5458989,3.99066916 65.5941077,2.13538473 59.7418391,1.07401993 C48.0268605,-1.04879737 32.6609799,0.000504534719 18.088405,12.6859993 L18.3626414,13.0009993 L18.3626414,13.0009993 Z M79.4232876,8.45830741 C69.0068174,7.93222137 60.0174955,13.3512918 55.6262058,21.2518962 C51.230322,29.1609373 51.450847,39.5400268 59.4148105,48.8976839 L59.7330683,48.6270395 C51.8793673,39.3987738 51.6822313,29.2080078 55.9912416,21.454796 C60.305682,13.6930639 69.1450632,8.35740045 79.4024046,8.87542563 L79.4232876,8.45830741 L79.4232876,8.45830741 Z" id="path3_stroke"></path>
                                            </g>
                                        </g>
                                        <g id="path" transform="translate(91.467780, 35.083532)">
                                            <g id="path4_fill-link" transform="translate(29.844149, 37.327046) rotate(-21.731401) translate(-29.844149, -37.327046) translate(11.049399, 5.375972)" fill="#FFFFFF">
                                                <path d="M28.7858358,7.97164857 C14.5853553,-9.57016327 -10.2654856,4.63035904 4.56148672,23.6339433 C10.617574,31.3959259 28.7858358,42.846191 26.2798687,63.7292505 C49.8708347,30.5116119 28.7858358,7.97164857 28.7858358,7.97164857 L28.7858358,7.97164857 L28.7858358,7.97164857 Z" id="path4_fill"></path>
                                            </g>
                                            <g id="path5_stroke-link" transform="translate(29.766828, 37.133057) rotate(-21.731401) translate(-29.766828, -37.133057) translate(10.554417, 4.973152)" fill="#979797">
                                                <path d="M29.203497,8.38930976 L29.0411939,8.52070598 L29.0459135,8.52651147 L29.0510089,8.53194106 L29.203497,8.38930976 L29.203497,8.38930976 Z M4.97914791,24.0516045 L5.14378995,23.9231319 L4.97914791,24.0516045 L4.97914791,24.0516045 Z M26.6975299,64.146912 L26.4901611,64.12227 L26.8677686,64.2680337 L26.6975299,64.146912 L26.6975299,64.146912 Z M29.3658419,8.25791357 C22.2069203,-0.585439871 12.3305696,-1.45536966 6.09747751,2.33753275 C2.98132824,4.23373545 0.780184841,7.29558039 0.304906035,11.0945013 C-0.170267938,14.8925451 1.08292029,19.3973135 4.81450586,24.1800353 L5.14378995,23.9231319 C1.46187264,19.2040616 0.26129636,14.8074675 0.719336201,11.1463331 C1.17726995,7.48607566 3.2963116,4.53097654 6.31457779,2.69432817 C12.3502832,-0.978463229 21.9995933,-0.177752427 29.0411939,8.52070598 L29.3658419,8.25791357 L29.3658419,8.25791357 Z M4.81450586,24.1800353 C6.33825918,26.1321837 8.61856397,28.3127928 11.1330097,30.8028053 C13.6477477,33.2930684 16.3988402,36.0946143 18.8839661,39.3067213 C23.84954,45.7238768 27.7344156,53.7534131 26.4901611,64.12227 L26.9048569,64.1719717 C28.1666114,53.6577687 24.2203396,45.5204758 19.2142526,39.0511544 C16.7135479,35.8200439 13.9437024,32.9983666 11.4268761,30.506057 C8.90984091,28.013455 6.6480385,25.8520165 5.14378995,23.9231319 L4.81450586,24.1800353 L4.81450586,24.1800353 Z M26.8677686,64.2680337 C38.697646,47.61087 39.3368764,33.6098644 37.0003962,23.7632929 C35.8324902,18.8472119 33.9205625,14.9616681 32.3076803,12.3213393 C31.4992135,10.9983557 30.7608721,9.97846884 30.228187,9.29438156 C29.9608839,8.95114759 29.7426976,8.68893991 29.5930079,8.51452459 C29.5176618,8.42677396 29.4583957,8.35973935 29.4187179,8.31550904 C29.3986284,8.2931224 29.382966,8.27591477 29.3726498,8.26467968 C29.3673873,8.25891596 29.3632524,8.25440522 29.3605794,8.25152332 C29.3591593,8.25001974 29.3580317,8.24880852 29.3573216,8.24805673 C29.3569457,8.24763907 29.3566116,8.24730494 29.3564445,8.24709611 C29.3561939,8.24680375 29.3560269,8.24663668 29.203497,8.38930976 C29.0510089,8.53194106 29.0510089,8.53194106 29.0510507,8.53202459 C29.0512178,8.53214989 29.0513431,8.53231696 29.0515937,8.53260932 C29.0521784,8.53323581 29.052972,8.53407113 29.0540996,8.53528235 C29.0565221,8.53791362 29.0599887,8.5416308 29.06475,8.54685156 C29.074565,8.55754369 29.0887655,8.57316421 29.1078526,8.59442316 C29.146528,8.63752583 29.2027452,8.70113561 29.2760866,8.78654731 C29.4237298,8.95854019 29.6355258,9.21306295 29.8986941,9.55099263 C30.4269102,10.2293161 31.1515941,11.2298653 31.9512482,12.5390661 C33.5546078,15.1630225 35.439471,18.9885902 36.5940118,23.8597309 C38.9023417,33.587603 38.2885468,47.465524 26.5272494,64.0262079 L26.8677686,64.2680337 L26.8677686,64.2680337 Z" id="path5_stroke"></path>
                                            </g>
                                        </g>
                                        <g id="ellipse" transform="translate(82.279236, 92.303103)">
                                            <g id="path6_fill-link" transform="translate(18.741760, 18.587146) rotate(-21.731401) translate(-18.741760, -18.587146) translate(4.958944, 4.804330)" fill="#4990E2">
                                                <path d="M13.5739887,27.1479775 C21.0707148,27.1479775 27.1479775,21.0707148 27.1479775,13.5739887 C27.1479775,6.07726271 21.0707148,0 13.5739887,0 C6.07726271,0 0,6.07726271 0,13.5739887 C0,21.0707148 6.07726271,27.1479775 13.5739887,27.1479775 L13.5739887,27.1479775 L13.5739887,27.1479775 Z" id="path6_fill"></path>
                                            </g>
                                            <g id="path7_stroke-link" transform="translate(18.470450, 18.470478) rotate(-21.731401) translate(-18.470450, -18.470478) translate(4.478803, 4.478831)" fill="#979797">
                                                <path d="M27.3568081,13.9916499 C27.3568081,21.3730179 21.3730179,27.3568081 13.9916499,27.3568081 L13.9916499,27.7744693 C21.6036922,27.7744693 27.7744693,21.6036922 27.7744693,13.9916499 L27.3568081,13.9916499 L27.3568081,13.9916499 Z M13.9916499,27.3568081 C6.61028193,27.3568081 0.626491789,21.3730179 0.626491789,13.9916499 L0.208830596,13.9916499 C0.208830596,21.6036922 6.37960763,27.7744693 13.9916499,27.7744693 L13.9916499,27.3568081 L13.9916499,27.3568081 Z M0.626491789,13.9916499 C0.626491789,6.61028193 6.61028193,0.626491789 13.9916499,0.626491789 L13.9916499,0.208830596 C6.37960763,0.208830596 0.208830596,6.37960763 0.208830596,13.9916499 L0.626491789,13.9916499 L0.626491789,13.9916499 Z M13.9916499,0.626491789 C21.3730179,0.626491789 27.3568081,6.61028193 27.3568081,13.9916499 L27.7744693,13.9916499 C27.7744693,6.37960763 21.6036922,0.208830596 13.9916499,0.208830596 L13.9916499,0.626491789 L13.9916499,0.626491789 Z" id="path7_stroke"></path>
                                            </g>
                                        </g>
                                    </g>
                                </g>
                            </g>
                        </g>
                    </g>
                </g>
            </g>
            <text id="Maxim" sketch:type="MSTextLayer" font-family="Geometria" font-size="60" font-weight="260" sketch:alignment="middle" fill="#4A4A4A">
                <tspan x="181.56" y="428">Maxim</tspan>
                <tspan x="94.8" y="504">SOKHATSKY</tspan>
            </text>
            <text id="Synrc-Research-Cente" sketch:type="MSTextLayer" font-family="Geometria" font-size="30" font-weight="260" sketch:alignment="middle" fill="#9B9B9B">
                <tspan x="114.51" y="96">Synrc Research Center</tspan>
            </text>
            <text id="Architecture-Consult" sketch:type="MSTextLayer" font-family="Geometria" font-size="30" font-weight="260" sketch:alignment="middle" fill="#9B9B9B">
                <tspan x="101.915" y="560">Architecture Consultant</tspan>
            </text>
            <text id="Web:-n2o.space" sketch:type="MSTextLayer" font-family="Geometria" font-size="30" font-weight="260" sketch:alignment="middle">
                <tspan x="275" y="705" fill="#4990E2"></tspan>
                <tspan x="230.825" y="742" fill="#4990E2">@5HT</tspan>
                <tspan x="203.12" y="779" fill="#4A90E2">n2o.space</tspan>
                <tspan x="346.88" y="779" fill="#4990E2"></tspan>
                <tspan x="140.855" y="816" fill="#4990E2">maxim@synrc.com</tspan>
            </text>
        </g>
    </g>
</svg>