<?xml version="1.0" encoding="UTF-8" standalone="no"?>
<svg width="550px" height="910px" viewBox="0 0 550 910" version="1.1" xmlns="http://www.w3.org/2000/svg" xmlns:xlink="http://www.w3.org/1999/xlink" xmlns:sketch="http://www.bohemiancoding.com/sketch/ns">
    <!-- Generator: Sketch 3.3.1 (12002) - http://www.bohemiancoding.com/sketch -->
    <title>CARD</title>
    <desc>Created with Sketch.</desc>
    <defs></defs>
    <g id="Page-1" stroke="none" stroke-width="1" fill="none" fill-rule="evenodd" sketch:type="MSPage">
        <g id="CARD" sketch:type="MSLayerGroup">
            <rect id="Rectangle-1" stroke="#979797" fill="#FFFFFF" sketch:type="MSShapeGroup" x="0" y="0" width="550" height="910"></rect>
            <text id="MAXIM" sketch:type="MSTextLayer" font-family="Geometria" font-size="60" font-weight="260" fill="#4A4A4A">
                <tspan x="47" y="418">MAXIM</tspan>
                <tspan x="47" y="494">SOKHATSKY</tspan>
            </text>
            <text id="Synrc" sketch:type="MSTextLayer" font-family="Geometria" font-size="30" font-weight="260" fill="#9B9B9B">
                <tspan x="256" y="98.728">Synrc</tspan>
                <tspan x="256" y="135.728">Research</tspan>
                <tspan x="256" y="172.728">Center</tspan>
            </text>
            <text id="Architecture-Consult" sketch:type="MSTextLayer" font-family="Geometria" font-size="30" font-weight="260" fill="#9B9B9B">
                <tspan x="47" y="589">Architecture Consultant</tspan>
            </text>
            <text id="n2o.space" sketch:type="MSTextLayer" font-family="Geometria" font-size="30" font-weight="260" fill="#4990E2">
                <tspan x="47" y="779.272">n2o.space</tspan>
                <tspan x="47" y="816.272">@5HT</tspan>
                <tspan x="47" y="853.272">maxim@synrc.com</tspan>
            </text>
            <g id="S" transform="translate(30.626747, 31.728000)" sketch:type="MSShapeGroup">
                <g id="Page-1">
                    <g id="Synrc-Neo-(7)">
                        <g id="Canvas">
                            <g id="Synrc-Neo">
                                <g id="g">
                                    <g id="Group">
                                        <g id="path">
                                            <g id="path0_fill-link" transform="translate(95.249484, 95.052167) rotate(-21.731401) translate(-95.249484, -95.052167) translate(22.627924, 21.910277)" fill="#4990E2">
                                                <path d="M72.3845807,145.818212 C112.363892,145.818212 144.773871,113.343414 144.773871,73.2841434 C144.773871,33.2246913 112.363892,0.750074542 72.3845807,0.750074542 C32.4050876,0.750074542 -0.00470956421,33.2246913 -0.00470956421,73.2841434 C-0.00470956421,113.343414 32.4050876,145.818212 72.3845807,145.818212 L72.3845807,145.818212 L72.3845807,145.818212 Z" id="path0_fill"></path>
                                            </g>
                                            <g id="path1_stroke-link" transform="translate(95.279265, 95.360272) rotate(-21.731401) translate(-95.279265, -95.360272) translate(22.283367, 22.218382)" fill="#979797">
                                                <path d="M72.8451041,145.748335 C112.950133,145.748335 145.46132,113.172125 145.46132,72.9868863 L145.007469,72.9868863 C145.007469,112.920643 112.699153,145.293576 72.8451041,145.293576 L72.8451041,145.748335 L72.8451041,145.748335 Z M145.46132,72.9868863 C145.46132,32.8018298 112.950133,0.225437953 72.8451041,0.225437953 L72.8451041,0.680197006 C112.699153,0.680197006 145.007469,33.0529932 145.007469,72.9868863 L145.46132,72.9868863 L145.46132,72.9868863 Z M72.8451041,0.225437953 C32.7402574,0.225437953 0.228888268,32.8018298 0.228888268,72.9868863 L0.682739618,72.9868863 C0.682739618,33.0529932 32.9909195,0.680197006 72.8451041,0.680197006 L72.8451041,0.225437953 L72.8451041,0.225437953 Z M0.228888268,72.9868863 C0.228888268,113.172125 32.7402574,145.748335 72.8451041,145.748335 L72.8451041,145.293576 C32.9909195,145.293576 0.682739618,112.920643 0.682739618,72.9868863 L0.228888268,72.9868863 L0.228888268,72.9868863 Z" id="path1_stroke"></path>
                                            </g>
                                        </g>
                                        <g id="path" transform="translate(20.423306, 26.376019)">
                                            <g id="path2_fill-link" transform="translate(65.535620, 73.151082) rotate(-21.731401) translate(-65.535620, -73.151082) translate(19.015867, 13.577659)" fill="#FFFFFF">
                                                <path d="M64.7359949,52.638815 C73.8130221,63.3256526 100.95651,73.3071591 90.2020481,100.34304 C83.7142432,116.652973 42.7242499,133.585926 13.6777635,97.4325816 C-10.7480623,67.0305747 3.06716827,28.1288028 19.8047567,13.5295366 C51.3473799,-13.9833861 86.2939341,8.98194602 86.2939341,8.98194602 C63.8282924,7.84504842 47.5477368,32.4020372 64.7359949,52.638815 L64.7359949,52.638815 L64.7359949,52.638815 Z" id="path2_fill"></path>
                                            </g>
                                            <g id="path3_stroke-link" transform="translate(65.451600, 72.939862) rotate(-21.731401) translate(-65.451600, -72.939862) translate(18.931847, 13.139060)" fill="#979797">
                                                <path d="M64.7359949,53.093574 L64.9089122,52.9462321 L64.7359949,53.093574 L64.7359949,53.093574 Z M90.2020481,100.797799 L90.4126351,100.881929 L90.2020481,100.797799 L90.2020481,100.797799 Z M13.6777635,97.8873405 L13.8545386,97.7445462 L13.6777635,97.8873405 L13.6777635,97.8873405 Z M19.8047567,13.9842956 L19.9537561,14.1557853 L19.8047567,13.9842956 L19.8047567,13.9842956 Z M86.2939341,9.43670511 L86.2825879,9.6637663 L87.1176742,9.70605888 L86.4182894,9.24657034 L86.2939341,9.43670511 L86.2939341,9.43670511 Z M64.5630776,53.2409159 C66.8486729,55.9299065 70.2643583,58.5725112 73.916954,61.4329454 C77.5695493,64.2938349 81.4631401,67.3757367 84.7381316,70.9683334 C88.0144847,74.5591109 90.6536301,78.6260211 91.8159436,83.4942166 C92.977349,88.3469507 92.6650993,93.9918749 89.9910073,100.713668 L90.4126351,100.881929 C93.1162275,94.08601 93.4439081,88.3446769 92.257087,83.3882578 C91.0707194,78.4468461 88.373481,74.2812532 85.0735277,70.6613711 C81.7722133,67.0428532 77.8500299,63.9363944 74.1965264,61.0745954 C70.543023,58.2132516 67.1618303,55.600661 64.9089122,52.9462321 L64.5630776,53.2409159 L64.5630776,53.2409159 Z M89.9910073,100.713668 C86.788632,108.764268 75.012551,117.043611 60.3726681,118.790341 C45.7594717,120.534342 28.3278582,115.759371 13.8545386,97.7445462 L13.5010338,98.0301353 C28.0742006,116.168655 45.6607137,121.004108 60.4262225,119.241916 C75.1645911,117.483363 87.127205,109.141263 90.4126351,100.881929 L89.9910073,100.713668 L89.9910073,100.713668 Z M13.8545386,97.7445462 C1.68830433,82.6019795 -0.955189164,65.3438733 1.5289662,50.0462338 C4.01431519,34.7413633 11.6297139,21.4163773 19.9537561,14.1557853 L19.6557574,13.812806 C11.2422156,21.1514802 3.58120031,34.5769224 1.08100584,49.9730176 C-1.42039134,65.3770707 1.24142414,82.7706951 13.5010338,98.0301353 L13.8545386,97.7445462 L13.8545386,97.7445462 Z M19.9537561,14.1557853 C35.6611429,0.455123803 52.2083362,-0.676172137 64.8372037,1.61688671 C71.1570837,2.76346617 76.4848449,4.76516091 80.2463649,6.48513694 C82.1248557,7.34381297 83.6048646,8.12895448 84.6192226,8.70172351 C85.1257206,8.98749412 85.5128557,9.21869362 85.775636,9.37949638 C85.9063452,9.45957948 86.0048309,9.5214267 86.0710932,9.56371928 C86.1042243,9.58468367 86.1287323,9.60046385 86.1455248,9.61124164 C86.1536941,9.61656232 86.1595942,9.62042777 86.1636788,9.62311085 C86.1659481,9.62442965 86.1673096,9.62538464 86.1682173,9.6260213 C86.1686712,9.62633963 86.169125,9.62652154 86.169125,9.62670344 C86.1695789,9.62679439 86.1695789,9.62683987 86.2939341,9.43670511 C86.4182894,9.24657034 86.4182894,9.24643392 86.4178355,9.24616106 C86.4173817,9.24597916 86.4169278,9.24566083 86.416474,9.24529702 C86.4155663,9.24452393 86.4137509,9.24338703 86.4114816,9.2419318 C86.4069431,9.23906682 86.4001353,9.23470114 86.3915122,9.22906212 C86.3742658,9.21796601 86.3483963,9.20123088 86.3143574,9.17962978 C86.2467336,9.13665506 86.1450709,9.07289786 86.0120925,8.991496 C85.7474972,8.82932892 85.3531001,8.59399111 84.8420635,8.30553742 C83.8222598,7.72985793 82.3254579,6.93580315 80.4347132,6.07139715 C76.6586699,4.34513179 71.2778081,2.3250557 64.9184431,1.16941745 C52.1883667,-1.14195455 35.4910394,0.000549348934 19.6557574,13.812806 L19.9537561,14.1557853 L19.9537561,14.1557853 Z M86.3052804,9.20959844 C74.9862276,8.63678393 65.2179849,14.5371917 60.446192,23.1395504 C55.6694067,31.7510951 55.9090402,43.0520849 64.5630776,53.2409159 L64.9089122,52.9462321 C56.3746916,42.8982854 56.1604738,31.8023465 60.842858,23.3604723 C65.5311427,14.909321 75.1364524,9.09972863 86.2825879,9.6637663 L86.3052804,9.20959844 L86.3052804,9.20959844 Z" id="path3_stroke"></path>
                                            </g>
                                        </g>
                                        <g id="path" transform="translate(99.393423, 38.199752)">
                                            <g id="path4_fill-link" transform="translate(32.430131, 40.642541) rotate(-21.731401) translate(-32.430131, -40.642541) translate(12.006825, 5.853481)" fill="#FFFFFF">
                                                <path d="M31.2801158,8.67971318 C15.8491699,-10.4202125 -11.1549854,5.04164076 4.95673753,25.7331776 C11.5375821,34.1846018 31.2801158,46.6519121 28.5570077,69.3898646 C54.1921204,33.2217404 31.2801158,8.67971318 31.2801158,8.67971318 L31.2801158,8.67971318 L31.2801158,8.67971318 Z" id="path4_fill"></path>
                                            </g>
                                            <g id="path5_stroke-link" transform="translate(32.346110, 40.431321) rotate(-21.731401) translate(-32.346110, -40.431321) translate(11.468953, 5.414882)" fill="#979797">
                                                <path d="M31.7339671,9.13447222 L31.5576005,9.27753943 L31.562729,9.28386058 L31.568266,9.28977244 L31.7339671,9.13447222 L31.7339671,9.13447222 Z M5.41058887,26.1879367 L5.58949708,26.0480528 L5.41058887,26.1879367 L5.41058887,26.1879367 Z M29.010859,69.844624 L28.7855219,69.8177932 L29.1958489,69.9765041 L29.010859,69.844624 L29.010859,69.844624 Z M31.9103791,8.99140505 C24.1311401,-0.637440313 13.399008,-1.58463975 6.62582124,2.54515908 C3.23965901,4.60978793 0.847787513,7.94359468 0.331326008,12.0799466 C-0.18502158,16.2153435 1.17675485,21.1202383 5.23168066,26.3277751 L5.58949708,26.0480528 C1.58854326,20.9098212 0.283937574,16.1227091 0.781666365,12.1363822 C1.27927987,8.15101028 3.58193555,4.93343082 6.86173317,2.9336461 C13.4204298,-1.06537313 23.9058483,-0.193540905 31.5576005,9.27753943 L31.9103791,8.99140505 L31.9103791,8.99140505 Z M5.23168066,26.3277751 C6.88746653,28.4533189 9.36535873,30.8276159 12.09768,33.5387984 C14.830319,36.2502538 17.8197924,39.3006411 20.5202534,42.7980566 C25.9160921,49.7852022 30.1375904,58.5279448 28.7855219,69.8177932 L29.2361508,69.8719095 C30.6072358,58.423805 26.3190213,49.5637346 20.879159,42.5197895 C18.1617695,39.0016825 15.1519181,35.9293758 12.4170099,33.2156921 C9.68187468,30.5016901 7.22408809,28.1482665 5.58949708,26.0480528 L5.23168066,26.3277751 L5.23168066,26.3277751 Z M29.1958489,69.9765041 C42.0507799,51.8398036 42.7453994,36.5951885 40.2064642,25.8740165 C38.9373596,20.5212751 36.8597643,16.2906062 35.1071265,13.4157558 C34.2286065,11.9752611 33.4262881,10.864785 32.847446,10.1199351 C32.5569812,9.74621409 32.3198892,9.46071638 32.1572289,9.270809 C32.0753541,9.1752641 32.0109526,9.10227528 31.9678368,9.05411631 C31.9460065,9.02974123 31.928987,9.01100516 31.9177769,8.99877215 C31.9120584,8.99249647 31.9075653,8.98758508 31.9046606,8.98444719 C31.9031175,8.98281006 31.9018921,8.98149126 31.9011206,8.98067269 C31.9007121,8.98021794 31.900349,8.97985413 31.9001675,8.97962675 C31.8998952,8.97930842 31.8997136,8.97912651 31.7339671,9.13447222 C31.568266,9.28977244 31.568266,9.28977244 31.5683114,9.2898634 C31.568493,9.28999982 31.5686291,9.29018173 31.5689014,9.29050006 C31.5695368,9.2911822 31.5703991,9.29209171 31.5716245,9.29341052 C31.5742569,9.2962755 31.5780238,9.30032285 31.5831977,9.30600734 C31.5938632,9.31764917 31.6092942,9.33465715 31.6300352,9.35780438 C31.6720618,9.40473555 31.7331502,9.47399534 31.8128465,9.56699355 C31.973283,9.75426333 32.203431,10.0313935 32.4894027,10.3993391 C33.0633885,11.1379132 33.850866,12.227334 34.7198098,13.6528218 C36.4620997,16.5098455 38.5102855,20.675211 39.7648668,25.9790204 C42.2732124,36.5709499 41.6062324,51.6815474 28.8258238,69.7131987 L29.1958489,69.9765041 L29.1958489,69.9765041 Z" id="path5_stroke"></path>
                                            </g>
                                        </g>
                                        <g id="ellipse" transform="translate(89.408696, 100.501728)">
                                            <g id="path6_fill-link" transform="translate(20.365725, 20.238109) rotate(-21.731401) translate(-20.365725, -20.238109) translate(5.388634, 5.231064)" fill="#4990E2">
                                                <path d="M14.7501689,29.5593384 C22.8964829,29.5593384 29.5003377,22.9422759 29.5003377,14.7796692 C29.5003377,6.61706255 22.8964829,0 14.7501689,0 C6.60385484,0 0,6.61706255 0,14.7796692 C0,22.9422759 6.60385484,29.5593384 14.7501689,29.5593384 L14.7501689,29.5593384 L14.7501689,29.5593384 Z" id="path6_fill"></path>
                                            </g>
                                            <g id="path7_stroke-link" transform="translate(20.070906, 20.111078) rotate(-21.731401) translate(-20.070906, -20.111078) translate(4.866890, 4.876653)" fill="#979797">
                                                <path d="M29.7272634,15.2344282 C29.7272634,23.2714304 23.2249805,29.7867179 15.2040202,29.7867179 L15.2040202,30.241477 C23.4756426,30.241477 30.1811148,23.5225939 30.1811148,15.2344282 L29.7272634,15.2344282 L29.7272634,15.2344282 Z M15.2040202,29.7867179 C7.18305994,29.7867179 0.680777025,23.2714304 0.680777025,15.2344282 L0.226925675,15.2344282 C0.226925675,23.5225939 6.93239781,30.241477 15.2040202,30.241477 L15.2040202,29.7867179 L15.2040202,29.7867179 Z M0.680777025,15.2344282 C0.680777025,7.19742606 7.18305994,0.682138579 15.2040202,0.682138579 L15.2040202,0.227379526 C6.93239781,0.227379526 0.226925675,6.9462626 0.226925675,15.2344282 L0.680777025,15.2344282 L0.680777025,15.2344282 Z M15.2040202,0.682138579 C23.2249805,0.682138579 29.7272634,7.19742606 29.7272634,15.2344282 L30.1811148,15.2344282 C30.1811148,6.9462626 23.4756426,0.227379526 15.2040202,0.227379526 L15.2040202,0.682138579 L15.2040202,0.682138579 Z" id="path7_stroke"></path>
                                            </g>
                                        </g>
                                    </g>
                                </g>
                            </g>
                        </g>
                    </g>
                </g>
            </g>
        </g>
    </g>
</svg>