<?xml version="1.0" encoding="UTF-8" standalone="no"?>
<svg width="1284px" height="1114px" viewBox="0 0 1284 1114" version="1.1" xmlns="http://www.w3.org/2000/svg" xmlns:xlink="http://www.w3.org/1999/xlink" xmlns:sketch="http://www.bohemiancoding.com/sketch/ns">
    <!-- Generator: Sketch 3.3.1 (12002) - http://www.bohemiancoding.com/sketch -->
    <title>Group</title>
    <desc>Created with Sketch.</desc>
    <defs></defs>
    <g id="Page-1" stroke="none" stroke-width="1" fill="none" fill-rule="evenodd" sketch:type="MSPage">
        <g id="Group" sketch:type="MSLayerGroup" transform="translate(0.000000, -15.000000)">
            <path d="M460.992188,465.515625 C460.992188,465.515625 409.976563,402.539062 435.484375,331.171875 C460.992188,259.804688 518.632819,184.882813 640.890625,184.882812 C763.148431,184.882812 837.453131,276.078125 837.453125,332.390625 C837.453119,388.703125 840.320319,472.039062 811.484375,472.039062 C782.648431,472.039062 818.429694,413.171875 806.34375,413.171875 C794.257806,413.171875 776.281256,470.375 791.3125,486.625 C806.343744,502.875 830.929694,499.851562 830.929688,514.265625 C830.929681,528.679688 780.835944,564.460938 754.171875,573.40625 C727.507806,582.351562 728.484381,628.101562 648.335938,628.101562 C568.187494,628.101562 551.351561,602.15625 521.65625,570.960938 C491.960939,539.765625 474.34375,573.273438 443.070313,522.65625 C411.796875,472.039062 469.273436,494.898438 477.6875,475.039062 C486.101564,455.179688 467.273436,403.203125 478.828125,376.007812 C490.382814,348.8125 509.624998,285.945312 520.492188,276.390625 C531.359377,266.835938 463.382811,331.585938 463.382813,361.867188 C463.382814,392.148438 460.992188,465.515625 460.992188,465.515625 Z" id="Path-1" stroke="#979797" fill="#9B9B9B" sketch:type="MSShapeGroup"></path>
            <path d="M514.523437,493.710938 C502.523437,459.929688 500.851563,388.765625 521.882812,410.625 C542.914062,432.484375 526.523436,517.679687 539.273438,470.789062 C552.023439,423.898438 539.890627,379.171875 571.75,394.898438 C603.609373,410.625 631.757811,441.703128 597.445312,479.929688 C563.132814,518.156247 554.273438,503.765625 554.273438,503.765625 C554.273438,503.765625 579.718752,463.203124 579.71875,442.453125 C579.718748,421.703126 575.335936,440.531253 557.304688,472.148438 C539.273439,503.765622 526.523437,527.492188 514.523437,493.710938 Z" id="Path-2" stroke="#979797" fill="#FFFFFF" sketch:type="MSShapeGroup"></path>
            <path d="M616.640625,502.175781 C616.640625,502.175781 623.390625,472.488281 636.912109,476.154297 C650.433594,479.820313 654.470703,500.689453 651.455078,514.16992 C648.439453,527.650387 620.980469,540.109375 616.640625,545.970701 C612.300781,551.832028 649.40625,531.406252 656.65625,531.40625 C663.90625,531.406248 663.039063,561.560547 663.039063,561.560547 C663.039063,561.560547 645.417969,555.832033 632.654297,555.832031 C619.890625,555.832029 606.779297,564.082031 606.779297,564.082031 C606.779297,564.082031 601.076172,535.323786 613.833984,527.642578 C626.591797,519.961371 629.154297,501.355469 629.154297,501.355469 C629.154297,501.355469 616.640625,502.175781 616.640625,502.175781 Z" id="Path-3" stroke="#979797" fill="#FFFFFF" sketch:type="MSShapeGroup"></path>
            <path d="M664.96875,429.169922 C675.560547,399.654297 701.845703,385.201172 721.785156,390.583984 C741.724609,395.966797 766.509766,423.003904 766.509766,445.949219 C766.509766,468.894534 767.982422,474.824219 763.210938,485.263675 C758.439453,495.70313 734.542969,512.183591 716.875,507.578125 C699.207031,502.972659 654.376953,458.685547 664.96875,429.169922 Z" id="Path-4" stroke="#979797" fill="#FFFFFF" sketch:type="MSShapeGroup"></path>
            <path d="M502.914062,600.3125 C502.914062,600.3125 499.523437,692.726562 506.425781,705.835938 C513.328125,718.945312 539.496096,749.601562 556.386719,768.519531 C573.277342,787.4375 589.250002,789.296875 630.960937,789.296875 C672.671873,789.296875 701.964846,784.328125 711.910156,772.464844 C721.855467,760.601562 761.749987,721.378906 761.75,694.792969 C761.750013,668.207031 778.718737,614.257812 774.289062,603.355469 C769.859388,592.453125 735.523437,622.457031 735.523437,622.457031 C735.523437,622.457031 726.648439,688.710938 703.230469,713.128906 C679.812498,737.546875 591.777342,739.308594 565.472656,710.320312 C539.167971,681.332031 553.238281,655.222656 542.292969,629.289062 C531.347656,603.355469 502.914062,600.3125 502.914062,600.3125 Z" id="Path-5" stroke="#979797" fill="#9B9B9B" sketch:type="MSShapeGroup"></path>
            <path d="M569.998047,643.419922 C569.998047,635.34375 579.177734,629.371094 583.630859,629.371094 C588.083984,629.371094 592.833984,637.164062 592.833984,648.824219 C592.833984,660.484375 588.25,661.525391 582.5625,661.525391 C576.875,661.525391 569.998047,651.496094 569.998047,643.419922 Z" id="Path-6" stroke="#979797" fill="#9B9B9B" sketch:type="MSShapeGroup"></path>
            <path d="M598.578125,662.957031 C598.578125,662.957031 593.716797,643.378906 600.078125,638.017578 C606.439453,632.65625 614.183593,634.78125 614.183593,634.78125 C614.183593,634.78125 619.878906,660.261718 617.03125,662.957031 C614.183593,665.652343 598.578125,662.957031 598.578125,662.957031 Z" id="Path-7" stroke="#979797" fill="#9B9B9B" sketch:type="MSShapeGroup"></path>
            <path d="M573.318359,692.257812 C573.318359,692.257812 573.507811,725.791992 589.542969,713.722656 C605.578126,701.65332 573.318359,692.257812 573.318359,692.257812 Z" id="Path-8" stroke="#979797" fill="#9B9B9B" sketch:type="MSShapeGroup"></path>
            <path d="M597.806641,694.701172 C597.806641,694.701172 596.152344,720.466797 605.708984,720.466797 C615.265625,720.466797 618.390626,709.423828 618.390625,702.0625 C618.390624,694.701172 597.806641,694.701172 597.806641,694.701172 Z" id="Path-9" stroke="#979797" fill="#9B9B9B" sketch:type="MSShapeGroup"></path>
            <path d="M634.371094,696.255859 C626.142578,696.255859 621.974609,698.695312 621.974609,709.4375 C621.974609,720.179688 627.53125,724.195312 632.892578,724.195312 C638.253906,724.195312 645.499079,716.771484 645.199219,709.4375 C644.899359,702.103516 642.599609,696.255859 634.371094,696.255859 Z" id="Path-10" stroke="#979797" fill="#9B9B9B" sketch:type="MSShapeGroup"></path>
            <path d="M652.185547,635.236328 C652.185547,635.236328 645.322266,658.390625 648.753906,663.648438 C652.185547,668.90625 667.248047,666.064453 667.248047,663.501953 C667.248047,660.939453 670.958984,636.021484 666.076172,636.021484 C661.193359,636.021484 652.185547,635.236328 652.185547,635.236328 Z" id="Path-11" stroke="#979797" fill="#9B9B9B" sketch:type="MSShapeGroup"></path>
            <path d="M666.185547,695.470703 C662.560547,699.052734 660.212891,714.269531 666.185547,720.589844 C672.158203,726.910156 681.513673,716.261719 681.513672,710.775391 C681.513671,705.289062 683.218301,698.490234 677.416016,695.470703 C671.61373,692.451172 669.810547,691.888672 666.185547,695.470703 Z" id="Path-12" stroke="#979797" fill="#9B9B9B" sketch:type="MSShapeGroup"></path>
            <path d="M677.666016,631.673828 C677.666016,631.673828 674.695312,657.783203 680.771484,661.753906 C686.847656,665.724609 694.660156,654.462891 694.660156,648.621094 C694.660156,642.779297 694.965595,631.667969 690.382812,631.667969 C685.80003,631.667969 677.666016,631.673828 677.666016,631.673828 Z" id="Path-13" stroke="#979797" fill="#9B9B9B" sketch:type="MSShapeGroup"></path>
            <path d="M625.3714,636.494141 C621.926394,641.039062 619.838405,655.941406 623.529349,660.71875 C627.220293,665.496094 637.157449,667.058594 640.867206,656.550781 C644.576962,646.042969 643.57317,639.035156 639.699218,636.49414 C635.825266,633.953125 628.816406,631.949219 625.3714,636.494141 Z" id="Path-14" stroke="#979797" fill="#9B9B9B" sketch:type="MSShapeGroup"></path>
            <path d="M0.535097442,303.784543 C0.535097442,303.784543 34.3856394,542.160907 267.888888,730.388181 C501.392136,918.615454 746.839724,1034.45508 896.455263,1018.91931 C871.804446,981.524594 520.638735,900.968015 389.219223,755.344417 C452.341769,796.356625 880.02114,1058.19991 933.679974,952.618356 C335.228457,834.841244 0.535097442,303.784543 0.535097442,303.784543 Z" id="Path-15" stroke="#979797" fill="#9B9B9B" sketch:type="MSShapeGroup"></path>
            <path d="M656.968808,842.526222 C656.968808,842.526222 1098.75006,631.873726 1282.59442,301.418618 C1247.70129,658.273394 779.954385,892.278743 779.954385,892.278743 L717.827563,869.002461 C717.827563,869.002461 869.851025,791.003517 944.990445,714.561989 L694.849149,869.00248 L656.968808,842.526222 Z" id="Path-16" stroke="#979797" fill="#9B9B9B" sketch:type="MSShapeGroup"></path>
            <path d="M181.671875,868.335936 C191.338904,840.166103 219.572409,811.177823 251.742187,839.347656 C283.911966,867.517489 240.617187,915.578124 348.625,970.576125 C355.560104,1006.85937 320.293777,997.20703 363.15625,1051.26562 C406.018723,1105.32422 418.554989,1037.35763 436.716456,1070.36996 C454.877923,1103.3823 440.316405,1113.30556 402.580745,1113.30555 C364.845086,1113.30555 278.071648,1063.40571 296.398437,996.164064 C239.204224,952.273439 236.539223,868.335938 181.671875,868.335936 Z" id="Path-17" stroke="#979797" fill="#9B9B9B" sketch:type="MSShapeGroup"></path>
            <path d="M134.52272,961.088984 C134.52272,961.088984 229.560103,929.013264 252.262321,968.147251 C274.964538,1007.28124 261.097212,1007.28124 261.097212,1007.28124 C261.097212,1007.28124 183.64118,1022.74833 159.08195,1007.73946 C134.52272,992.730599 134.52272,961.088984 134.52272,961.088984 Z" id="Path-18" stroke="#979797" fill="#9B9B9B" sketch:type="MSShapeGroup"></path>
            <path d="M133.678622,943.483514 C133.678622,943.483514 75.1625417,904.381684 62.4689141,955.115987 C49.7752865,1005.85029 55.7482857,1024.97514 94.7134545,1024.97514 C133.678623,1024.97514 143.132517,1009.42766 125.269799,982.271823 C107.407081,955.115986 133.678622,943.483514 133.678622,943.483514 Z" id="Path-19" stroke="#979797" fill="#9B9B9B" sketch:type="MSShapeGroup"></path>
            <path d="M322.115716,932.83258 L484.231348,894.98677 L529.530096,924.839161 C529.530096,924.839161 415.47657,969.849383 375.594815,962.583377 C335.713061,955.317371 322.115716,932.83258 322.115716,932.83258 Z" id="Path-20" stroke="#979797" fill="#9B9B9B" sketch:type="MSShapeGroup"></path>
            <path d="M360.136267,1013.18533 C360.136267,1013.18533 355.4223,986.945625 411.473764,973.535214 C467.525229,960.124802 551.884848,933.929795 551.884848,933.929795 L612.341426,959.25922 C612.341426,959.25922 492.180066,1013.18533 360.136267,1013.18533 Z" id="Path-21" stroke="#979797" fill="#9B9B9B" sketch:type="MSShapeGroup"></path>
            <path d="M898.401098,989.502363 C898.401098,989.502363 943.473865,983.898997 965.884182,942.929486 C988.2945,901.959974 987.865905,854.221046 1025.90136,859.969381 C1063.93682,865.717716 1078.47154,892.511777 1078.47154,892.511777 C1078.47154,892.511777 1054.26487,888.736281 1027.12414,927.184588 C999.983419,965.632895 992.47654,998.364383 955.106044,1014.6923 C971.928759,1049.18548 946.871196,1084.10727 927.158549,1099.37314 C907.445903,1114.63901 849.978289,1145.24322 811.520527,1116.15172 C773.062765,1087.06022 811.520527,1044.45508 827.199243,1078.5102 C842.877959,1112.56532 947.104396,1083.57466 898.401098,989.502363 Z" id="Path-22" stroke="#979797" fill="#9B9B9B" sketch:type="MSShapeGroup"></path>
            <path d="M986.759723,1027.48425 C986.759723,1027.48425 983.872946,988.575823 1027.82063,983.041786 C1071.76831,977.507749 1111.79551,975.925698 1118.24034,988.711336 C1124.68516,1001.49698 1112.77248,1028.49273 1094.3488,1032.56132 C1075.92513,1036.6299 986.759723,1027.48425 986.759723,1027.48425 Z" id="Path-23" stroke="#979797" fill="#9B9B9B" sketch:type="MSShapeGroup"></path>
            <path d="M1121.72904,970.886448 C1121.72904,970.886448 1143.08992,987.614614 1143.08992,987.614614 C1143.08992,987.614614 1112.20521,1026.03141 1127.64756,1043.39933 C1143.08992,1060.76725 1186.35687,1063.01112 1192.71029,1027.66704 C1199.06372,992.322955 1192.71029,953.338892 1121.72904,970.886448 Z" id="Path-24" stroke="#979797" fill="#9B9B9B" sketch:type="MSShapeGroup"></path>
            <text id="N2O-Code-of-Conduct" sketch:type="MSTextLayer" font-family="Geometria" font-size="64" font-weight="260" fill="#4A4A4A">
                <tspan x="294.091421" y="61.2314311">N2O Code of Conduct</tspan>
            </text>
        </g>
    </g>
</svg>