<?xml version="1.0" encoding="UTF-8" standalone="no"?>
<svg width="853px" height="1066px" viewBox="0 0 853 1066" version="1.1" xmlns="http://www.w3.org/2000/svg" xmlns:xlink="http://www.w3.org/1999/xlink" xmlns:sketch="http://www.bohemiancoding.com/sketch/ns">
    <!-- Generator: Sketch 3.1.1 (8761) - http://www.bohemiancoding.com/sketch -->
    <title>Dharma License</title>
    <desc>Created with Sketch.</desc>
    <defs></defs>
    <g id="Page-1" stroke="none" stroke-width="1" fill="none" fill-rule="evenodd" sketch:type="MSPage">
        <g id="Dharma-License" sketch:type="MSLayerGroup">
            <g transform="translate(81.000000, 80.000000)" id="Group">
                <g>
                    <text id="THE-SOFTWARE-IS-PROV" stroke="#979797" sketch:type="MSTextLayer" font-family="Geometria" font-size="12.8839286" font-weight="260" fill="#1C1C1C">
                        <tspan x="5.64705882" y="314">THE SOFTWARE IS PROVIDED "AS IS" AND THE AUTHOR DISCLAIMS ALL WARRANTIES WITH </tspan>
                        <tspan x="5.64705882" y="330">REGARD TO THIS SOFTWARE INCLUDING ALL IMPLIED WARRANTIES OF MERCHANTABILITY AND </tspan>
                        <tspan x="5.64705882" y="346">FITNESS. IN NO EVENT SHALL  THE AUTHOR BE LIABLE FOR ANY SPECIAL, DIRECT, INDIRECT, OR  </tspan>
                        <tspan x="5.64705882" y="362">CONSEQUENTIAL DAMAGES OR ANY DAMAGES WHATSOEVER RESULTING  FROM LOSS OF USE, </tspan>
                        <tspan x="5.64705882" y="378">DATA OR PROFITS, WHETHER IN AN ACTION OF CONTRACT,  NEGLIGENCE OR OTHER TORTIOUS </tspan>
                        <tspan x="5.64705882" y="394">ACTION, ARISING OUT OF OR IN CONNECTION  WITH THE USE OR PERFORMANCE OF THIS </tspan>
                        <tspan x="5.64705882" y="410">SOFTWARE.</tspan>
                    </text>
                    <text id="Dharma-License" sketch:type="MSTextLayer" font-family="Geometria" font-size="60" font-weight="260" fill="#979797">
                        <tspan x="0" y="57">Dharma License</tspan>
                    </text>
                    <text id="The-software-may-onl" sketch:type="MSTextLayer" font-family="Geometria" font-size="36" font-weight="260" fill="#979797">
                        <tspan x="3.38823529" y="132">The software may only be used for </tspan>
                        <tspan x="3.38823529" y="177">the great good and the true </tspan>
                        <tspan x="3.38823529" y="222">happiness of all sentient beings.</tspan>
                    </text>
                    <path d="M1.69411765,265.5 L671.435294,265.5" id="Line" stroke="#979797" stroke-linecap="square" sketch:type="MSShapeGroup"></path>
                </g>
            </g>
            <rect id="Rectangle-1" stroke="#979797" sketch:type="MSShapeGroup" x="0" y="0" width="853" height="1066"></rect>
            <g id="IMage" transform="translate(293.000000, 637.000000)">
                <rect id="Rectangle-4" stroke="#979797" stroke-width="10" fill="#FCFFBC" sketch:type="MSShapeGroup" x="0" y="0" width="267" height="267" rx="40"></rect>
                <path d="M135.5,164.794589 C172.665775,164.794589 202.794589,134.665775 202.794589,97.5 C202.794589,60.3342247 172.665775,30.2054108 135.5,30.2054108 C98.3342247,30.2054108 68.2054108,60.3342247 68.2054108,97.5 C68.2054108,134.665775 98.3342247,164.794589 135.5,164.794589 Z" id="Oval-4" stroke="#979797" stroke-width="5" fill="#F8E81C" sketch:type="MSShapeGroup"></path>
                <path d="M134.742829,214.583166 C147.016034,214.583166 189.577151,210.557113 205.106209,190.594059 C220.635267,170.631005 201.080157,151.61176 134.742825,163.536213 C65.9198397,151.61176 53.8416829,174.652022 65.9198397,190.59406 C77.9979965,206.536098 121.709421,214.583166 134.742829,214.583166 Z" id="Oval-3" stroke="#979797" stroke-width="5" fill="#D8D8D8" sketch:type="MSShapeGroup"></path>
                <path d="M135.665253,206.0027 C173.567242,206.0027 204.292875,184.077089 204.292875,157.030478 C204.292875,129.983866 173.567242,108.058255 135.665253,108.058255 C97.7632645,108.058255 67.0376318,129.983866 67.0376318,157.030478 C67.0376318,184.077089 97.7632645,206.0027 135.665253,206.0027 Z" id="Oval-2" stroke="#979797" stroke-width="5" fill="#D8D8D8" sketch:type="MSShapeGroup"></path>
                <text id="}" sketch:type="MSTextLayer" transform="translate(146.728457, 226.369739) rotate(-270.000000) translate(-146.728457, -226.369739) " font-family="Geometria" font-size="171.428571" font-weight="260" fill="#979797">
                    <tspan x="116.533066" y="281.369739">}</tspan>
                </text>
                <path d="M135.950015,172.499148 C159.225925,172.499148 178.094779,161.897797 178.094779,148.820368 C178.094779,135.742939 159.225925,125.141589 135.950015,125.141589 C112.674105,125.141589 93.8052518,135.742939 93.8052518,148.820368 C93.8052518,161.897797 112.674105,172.499148 135.950015,172.499148 Z" id="Oval-3" stroke="#979797" stroke-width="5" fill="#D8D8D8" sketch:type="MSShapeGroup"></path>
                <path d="M79,160.458918 L91,218.999998 L181.512171,219 L192,160.458918 L79,160.458918 Z" id="Rectangle-2" stroke="#979797" stroke-width="5" fill="#D8D8D8" sketch:type="MSShapeGroup"></path>
                <text id="\=" sketch:type="MSTextLayer" font-family="Arial" font-size="35.4594595" font-weight="normal" fill="#979797">
                    <tspan x="121.266283" y="204">\=</tspan>
                </text>
                <text id="}" sketch:type="MSTextLayer" transform="translate(131.530423, 46.453519) rotate(-90.000000) translate(-131.530423, -46.453519) " font-family="Geometria" font-size="56.1145577" font-weight="260" fill="#979797">
                    <tspan x="119.266283" y="64.4535187">}</tspan>
                </text>
                <rect id="Rectangle-3" fill="#D8D8D8" sketch:type="MSShapeGroup" x="88.9258517" y="127.160321" width="94.3246493" height="17.254509"></rect>
                <g id="Group" transform="translate(93.805252, 57.947144)">
                    <ellipse id="Oval-3" stroke="#979797" stroke-width="5" fill="#D8D8D8" sketch:type="MSShapeGroup" cx="42.1447634" cy="39.2916667" rx="42.1447634" ry="39.2916667"></ellipse>
                    <text id="(-4" sketch:type="MSTextLayer" transform="translate(38.902859, 60.334491) rotate(-90.000000) translate(-38.902859, -60.334491) " font-family="Geometria" font-size="42.1523848" font-weight="260" fill="#979797">
                        <tspan x="27.015874" y="73.8344907">(</tspan>
                    </text>
                    <text id="(" sketch:type="MSTextLayer" transform="translate(27.015874, 39.645833) rotate(90.000000) translate(-27.015874, -39.645833) " font-family="Geometria" font-size="31.0945946" font-weight="260" fill="#979797">
                        <tspan x="14.0482545" y="49.6458333">(</tspan>
                    </text>
                    <text id="(" sketch:type="MSTextLayer" transform="translate(60.515558, 39.645833) rotate(90.000000) translate(-60.515558, -39.645833) " font-family="Geometria" font-size="31.0945946" font-weight="260" fill="#979797">
                        <tspan x="47.5479382" y="49.6458333">(</tspan>
                    </text>
                </g>
            </g>
        </g>
    </g>
</svg>