<?xml version="1.0" encoding="UTF-8" standalone="no"?>
<svg width="567px" height="251px" viewBox="0 0 567 251" version="1.1" xmlns="http://www.w3.org/2000/svg" xmlns:xlink="http://www.w3.org/1999/xlink" xmlns:sketch="http://www.bohemiancoding.com/sketch/ns">
    <!-- Generator: Sketch 3.3.1 (12002) - http://www.bohemiancoding.com/sketch -->
    <title>ITERATORS</title>
    <desc>Created with Sketch.</desc>
    <defs></defs>
    <g id="Page-1" stroke="none" stroke-width="1" fill="none" fill-rule="evenodd" sketch:type="MSPage">
        <g id="ITERATORS" sketch:type="MSLayerGroup" transform="translate(0.000000, -11.000000)">
            <path d="M158.5,170.5 L240.5,150.5" id="Line-Copy-33" stroke="#979797" stroke-linecap="square" sketch:type="MSShapeGroup"></path>
            <path d="M309.5,165.5 L392.5,153.5" id="Line-Copy-30" stroke="#979797" stroke-linecap="square" sketch:type="MSShapeGroup"></path>
            <path d="M234.5,152.5 L304.5,172.5" id="Line-Copy-31" stroke="#979797" stroke-linecap="square" sketch:type="MSShapeGroup"></path>
            <path d="M93.5,152.5 L163.5,172.5" id="Line-Copy-35" stroke="#979797" stroke-linecap="square" sketch:type="MSShapeGroup"></path>
            <rect id="Rectangle-3-Copy-46" stroke="#979797" fill="#D8D8D8" sketch:type="MSShapeGroup" x="293" y="153" width="29" height="29"></rect>
            <rect id="Rectangle-3-Copy-48" stroke="#979797" fill="#D8D8D8" sketch:type="MSShapeGroup" x="150" y="153" width="29" height="29"></rect>
            <rect id="Rectangle-3-Copy-49" stroke="#979797" fill="#D8D8D8" sketch:type="MSShapeGroup" x="223" y="139" width="29" height="29"></rect>
            <path d="M8.5,170.5 L90.5,150.5" id="Line-Copy-34" stroke="#979797" stroke-linecap="square" sketch:type="MSShapeGroup"></path>
            <rect id="Rectangle-3-Copy-50" stroke="#979797" fill="#D8D8D8" sketch:type="MSShapeGroup" x="0" y="153" width="29" height="29"></rect>
            <rect id="Rectangle-3-Copy-51" stroke="#979797" fill="#D8D8D8" sketch:type="MSShapeGroup" x="73" y="139" width="29" height="29"></rect>
            <path d="M396,180 C410.359403,180 422,169.254834 422,156 C422,142.745166 410.359403,132 396,132 C381.640597,132 370,142.745166 370,156 C370,169.254834 381.640597,180 396,180 Z" id="Oval-5-Copy-43" stroke="#979797" stroke-width="2" sketch:type="MSShapeGroup"></path>
            <circle id="Oval-1-Copy-38" stroke="#979797" fill="#D8D8D8" sketch:type="MSShapeGroup" cx="396.5" cy="156.5" r="14.5"></circle>
            <path d="M88.5,250.5 L170.5,230.5" id="Line-Copy-38" stroke="#979797" stroke-linecap="square" sketch:type="MSShapeGroup"></path>
            <path d="M239.5,245.5 L322.5,233.5" id="Line-Copy-36" stroke="#979797" stroke-linecap="square" sketch:type="MSShapeGroup"></path>
            <path d="M164.5,232.5 L234.5,252.5" id="Line-Copy-37" stroke="#979797" stroke-linecap="square" sketch:type="MSShapeGroup"></path>
            <rect id="Rectangle-3-Copy-52" stroke="#979797" fill="#D8D8D8" sketch:type="MSShapeGroup" x="223" y="233" width="29" height="29"></rect>
            <rect id="Rectangle-3-Copy-53" stroke="#979797" fill="#D8D8D8" sketch:type="MSShapeGroup" x="80" y="233" width="29" height="29"></rect>
            <rect id="Rectangle-3-Copy-54" stroke="#979797" fill="#D8D8D8" sketch:type="MSShapeGroup" x="153" y="219" width="29" height="29"></rect>
            <path d="M326,260 C340.359403,260 352,249.254834 352,236 C352,222.745166 340.359403,212 326,212 C311.640597,212 300,222.745166 300,236 C300,249.254834 311.640597,260 326,260 Z" id="Oval-5-Copy-44" stroke="#979797" stroke-width="2" sketch:type="MSShapeGroup"></path>
            <circle id="Oval-1-Copy-39" stroke="#979797" fill="#D8D8D8" sketch:type="MSShapeGroup" cx="326.5" cy="236.5" r="14.5"></circle>
            <text id="{id,next,prev,…}." sketch:type="MSTextLayer" font-family="Geometria" font-size="52" font-weight="260" fill="#000000">
                <tspan x="192" y="49">{id,next,prev,…}.</tspan>
            </text>
        </g>
    </g>
</svg>